<?xml version="1.0" encoding="utf-8"?>
<!-- Generator: Adobe Illustrator 25.1.0, SVG Export Plug-In . SVG Version: 6.00 Build 0)  -->
<svg version="1.1" xmlns="http://www.w3.org/2000/svg" xmlns:xlink="http://www.w3.org/1999/xlink" x="0px" y="0px"
	 viewBox="0 0 500 500" style="enable-background:new 0 0 500 500;" xml:space="preserve">
<style type="text/css">
	.st0{fill:#FFFFFF;}
	.st1{fill:#90473F;}
	.st2{fill:#7F3B36;}
	.st3{fill:#6B2C2A;}
	.st4{fill:#CB7A44;}
	.st5{fill:#C16F40;}
	.st6{fill:none;stroke:#000000;stroke-linecap:round;stroke-linejoin:round;stroke-miterlimit:10;}
	.st7{fill:#F19A94;}
	.st8{fill:#FDBC2D;}
	.st9{fill:#FCAA1A;}
	.st10{fill:#FFECD6;}
	.st11{fill:#FCE2CA;}
	.st12{fill:#F18A2B;}
	.st13{clip-path:url(#SVGID_2_);}
	.st14{fill:none;stroke:#90473F;stroke-width:0.25;stroke-miterlimit:10;}
	.st15{fill:none;stroke:#000000;stroke-width:1.122;stroke-linecap:round;stroke-linejoin:round;stroke-miterlimit:10;}
	.st16{fill:#357269;}
	.st17{fill:#62997F;}
	.st18{fill:#74AB93;}
	.st19{clip-path:url(#SVGID_4_);fill:#B4C17C;}
	.st20{clip-path:url(#SVGID_4_);fill:#BFCE8B;}
	.st21{clip-path:url(#SVGID_4_);}
	.st22{fill:none;stroke:#74AB93;stroke-width:0.5;stroke-miterlimit:10;}
	.st23{opacity:0.6;}
	.st24{fill:#BFCE8B;}
	.st25{fill:#FFE3C7;}
	.st26{fill:#797C7C;}
	.st27{fill:#8C9091;}
	.st28{fill:none;stroke:#000000;stroke-width:0.8793;stroke-miterlimit:10;}
	.st29{fill:#9D9FA0;}
	.st30{fill:#1D262D;}
</style>
<g id="BACKGROUND">
	<rect class="st0" width="500" height="500"/>
</g>
<g id="OBJECTS">
	<g>
		<path class="st1" d="M214.47,195.43c4,2.79,5.83-1.12,5.65-5.15c-0.09-1.88,0.75-3.52,1.93-4.43c-2.4-1.63-4.67-3.49-6.78-5.47
			C210.69,184.97,211.04,193.04,214.47,195.43z"/>
		<path class="st2" d="M234.35,191.61c-2.33-0.59-4.61-1.46-6.82-2.54c0.21,3.33-2.41,8.31-9.56,15.08c-9.5,9-9.33,21.5-1.5,35.17
			c7.83,13.67,21,10,21,10l-1.63-5.17c-8.64-1.14-15.2-14-16.37-20.24c-1.17-6.24,3.5-13.43,8.17-18.09
			C231.19,202.26,233.96,197.35,234.35,191.61z"/>
		<path class="st2" d="M233.97,185.98c-1.67-8.17-8.67-11.25-16-7.57c-1.05,0.53-1.94,1.21-2.71,1.98c2.12,1.98,4.39,3.84,6.78,5.47
			c1.33-1.04,3.09-1.14,4.43,0.46c0.62,0.74,0.99,1.66,1.06,2.76c2.21,1.09,4.49,1.95,6.82,2.54
			C234.47,189.81,234.37,187.93,233.97,185.98z"/>
		<g>
			<path class="st2" d="M299.18,252.75c-0.33-0.02-0.53-0.03-0.53-0.03S298.81,252.77,299.18,252.75z"/>
			<path class="st2" d="M305.03,232.48c-5.62-1.38-5.06-13.06-4.43-18.82c-4.79,2.37-8.77,5.53-8.77,5.53v0.62
				c0,0-11.01,32.5-8.03,36.37c2.98,3.87,19.93,2.94,22.78,0c2.47-2.54-5.27-3.27-7.4-3.42c-0.37,0.02-0.53-0.03-0.53-0.03
				s0.2,0.01,0.53,0.03c1.41-0.08,5.77-1.27,15.21-10.96C312.61,238.22,309.5,233.57,305.03,232.48z"/>
			<path class="st1" d="M312.65,211.75c-3.3-1.57-7.97-0.12-12.05,1.9c-0.63,5.76-1.2,17.45,4.43,18.82
				c4.47,1.09,7.58,5.74,9.36,9.32c0,0,0.01-0.01,0.01-0.01C326.32,229.55,319.82,215.16,312.65,211.75z"/>
		</g>
		<path class="st3" d="M286.51,246.42c-0.18,0.22,17.46-18.95,19.74-23.45c2.28-4.5-4.4,14.95-17.05,23.45"/>
		<g>
			<path class="st2" d="M238.77,252.75c0.33-0.02,0.53-0.03,0.53-0.03S239.14,252.77,238.77,252.75z"/>
			<path class="st2" d="M232.92,232.48c5.62-1.38,5.06-13.06,4.43-18.82c4.79,2.37,8.77,5.53,8.77,5.53v0.62
				c0,0,11.01,32.5,8.03,36.37c-2.98,3.87-19.93,2.94-22.78,0c-2.47-2.54,5.27-3.27,7.4-3.42c0.37,0.02,0.53-0.03,0.53-0.03
				s-0.2,0.01-0.53,0.03c-1.41-0.08-5.77-1.27-15.21-10.96C225.34,238.22,228.45,233.57,232.92,232.48z"/>
			<path class="st1" d="M225.31,211.75c3.3-1.57,7.97-0.12,12.05,1.9c0.63,5.76,1.2,17.45-4.43,18.82
				c-4.47,1.09-7.58,5.74-9.36,9.32c0,0-0.01-0.01-0.01-0.01C211.63,229.55,218.13,215.16,225.31,211.75z"/>
		</g>
		<path class="st3" d="M251.44,246.42c0.18,0.22-17.46-18.95-19.74-23.45c-2.28-4.5,4.4,14.95,17.05,23.45"/>
		<path class="st2" d="M291.26,200.21c-0.68-5.93-1.4-9.93-1.4-9.93h-42.5c-0.32,0-1.45,6.84-2.11,15.96
			C260.88,207.5,276.6,205.46,291.26,200.21z"/>
		<path class="st1" d="M245.25,206.25c-1.1,15.07-0.95,36.4,6.11,43.56c11.33,11.5,23.64,9.88,34.97-3.17
			c7.89-9.09,6.5-32.84,4.93-46.43C276.6,205.46,260.88,207.5,245.25,206.25z"/>
		<path class="st4" d="M289.52,226.21c-2.24-7.86-7.78-17.86-22.16-17.07c-15.17,0.83-17.49,16.83-17.49,16.83l3.86,17.32
			C267.11,240.08,280.83,235.21,289.52,226.21z"/>
		<path class="st5" d="M289.52,226.21c-8.69,9-22.41,13.87-35.78,17.09l1.42,6.34c0,0-0.94,7.88,12.21,8
			c19.15,0.18,24.5-22.16,22.5-30.16C289.76,227.06,289.64,226.64,289.52,226.21z"/>
		<path class="st2" d="M258.53,195.43c4.66-4.66-11.58-6.71-11.58-6.71s-4.05,6.78-6.51,17.04c4.4,0.54,8.82,0.83,13.23,0.85
			C254.44,202.06,255.92,198.04,258.53,195.43z"/>
		<path class="st1" d="M253.66,206.61c-4.41-0.02-8.83-0.3-13.23-0.85c-2.02,8.4-2.96,19.12,0.26,30.38
			c5.77,20.14,15.1,23.34,19.39,20.67c4.28-2.67-4.97-18.33-4.93-18.83C255.18,237.6,251.4,219.86,253.66,206.61z"/>
		<path class="st2" d="M290.44,188.73c0,0-16.27,0.49-11.61,5.15c2.41,2.41,4.05,5.39,5.15,8.65c3.74-1.05,7.42-2.29,11.04-3.73
			C292.78,192.55,290.44,188.73,290.44,188.73z"/>
		<path class="st1" d="M283.98,202.52c4.91,14.65-1.48,35.04-1.45,35.45c0.04,0.5-9.21,16.17-4.93,18.83
			c4.28,2.67,13.61-0.53,19.39-20.67c4.21-14.68,1.21-28.47-1.97-37.35C291.41,200.24,287.72,201.48,283.98,202.52z"/>
		<path class="st1" d="M241.57,158.57c0,0-10.17-7.13-18.04,1.74s-4.33,28.78,16.71,20.39L241.57,158.57z"/>
		<path class="st4" d="M241.57,160.73c0,0-8.12-5.69-14.41,1.39c-6.29,7.09-3.46,22.98,13.34,16.28L241.57,160.73z"/>
		<path class="st1" d="M297.51,158.57c0,0,10.17-7.13,18.04,1.74s4.33,28.78-16.71,20.39L297.51,158.57z"/>
		<path class="st4" d="M297.51,160.73c0,0,8.12-5.69,14.41,1.39c6.29,7.09,3.46,22.98-13.34,16.28L297.51,160.73z"/>
		<path class="st1" d="M268.78,197.56c0,0-20.25,1.96-27.87-15.25c-9.25-20.88,7.62-33.25,17.12-38.62c9.5-5.38,11.12-5.88,10-1.25
			c0,0,6.88-4.38,7-2.38s-1.88,3.38-1.88,3.38s5.38-4.12,6.25-2s0,2.75,0,2.75s21.75,8.62,21.62,25S290.15,197.06,268.78,197.56z"/>
		<path class="st4" d="M269.62,158.93c0,0-9.47-8.5-17.22-3.5c-7.75,5-5.9,20-5.9,20s-5.85-0.38-2.35,6.75s11.18,13.25,25.47,13.25
			s21.28-10,24.15-13.75s1.5-10.25-4-8.12c0,0,2.75-16.15-5-19.7S269.62,158.93,269.62,158.93z"/>
		<g>
			<path d="M268.82,176.9c0,0-3.44-2.1-2.1-2.94c1.33-0.83,4.33-0.33,4.13,0.5C270.65,175.29,268.82,176.9,268.82,176.9z"/>
			<path class="st6" d="M266.53,178.4c0,0,0.69,1.41,2.1,0c0,0,1.11,1.05,2.16,0"/>
			<line class="st6" x1="268.66" y1="175.21" x2="268.63" y2="178.4"/>
		</g>
		<path class="st6" d="M262.51,174.27c0,0,2.31-2.34,6.12-2.34c3.81,0,6.12,2.59,6.12,2.59"/>
		<ellipse cx="257.4" cy="172.73" rx="1.12" ry="1.8"/>
		<ellipse cx="279.84" cy="172.73" rx="1.12" ry="1.8"/>
		<path class="st7" d="M260.06,180.52c-0.23,1.21-2.62,1.77-5.33,1.24c-2.71-0.52-4.72-1.93-4.49-3.14
			c0.23-1.21,2.62-1.77,5.33-1.24C258.29,177.9,260.3,179.31,260.06,180.52z"/>
		<path class="st7" d="M276.49,180.52c0.23,1.21,2.62,1.77,5.33,1.24c2.71-0.52,4.72-1.93,4.49-3.14c-0.23-1.21-2.62-1.77-5.33-1.24
			C278.27,177.9,276.26,179.31,276.49,180.52z"/>
	</g>
	<g>
		<path class="st8" d="M68.3,219.55c0,0-10.67,0.94-14.18-9.44c-3.51-10.38,2.05-21.04,1.32-27.21c-0.73-6.17-3.22-13.04-4.97-14.87
			c-1.75-1.82,2.63-2.9,3.66-1.38c1.02,1.52,5.58,6.99,5.06,19.47c-0.52,12.48-4.76,22.3,2.26,26.5c3.25,1.77,4.82,1.31,4.82,1.31
			L68.3,219.55z"/>
		<path class="st9" d="M72.59,192.61c0,0-7.75,3.25-7.95,12.62c-0.2,9.37,9.55,26.57,9.55,26.57s-8.77,0-7.41,4.11
			c1.36,4.11,19.89,4.25,27.1,1.57C101.11,234.79,72.59,192.61,72.59,192.61z"/>
		<path class="st9" d="M152.42,192.61c0,0,7.75,3.25,7.95,12.62c0.19,9.37-9.55,26.57-9.55,26.57s8.77,0,7.41,4.11
			c-1.37,4.11-19.89,4.25-27.1,1.57C123.91,234.79,152.42,192.61,152.42,192.61z"/>
		<path class="st8" d="M97.52,237.48c0,0,13.86,4.04,31.7-1.29c0,0,4.72-45.56,7.14-71.71c-15.54,5.25-31.27,9.49-47.45,10.85
			L97.52,237.48z"/>
		<path class="st9" d="M84.75,145.41l4.15,29.93c16.18-1.36,31.91-5.6,47.45-10.85c0.52-5.64,0.94-10.37,1.17-13.56
			C138.87,132.98,84.75,145.41,84.75,145.41z"/>
		<path class="st10" d="M129.91,213.82c3.95-3.49,7.63-7.2,11.09-11.07c-2.46-9.21-9.86-29.87-26.68-29.87
			c-21.64,0-25.72,35.71-25.72,35.71l6.81,17.18C108.04,225.98,120.94,221.3,129.91,213.82z"/>
		<path class="st11" d="M129.91,213.82c-8.98,7.48-21.87,12.16-34.49,11.95l4.58,11.54c0,0-3.13,2.54,12.28,3.02
			c28.18,0.86,29.74-33.23,29.74-33.23s-0.3-1.71-1.01-4.35C137.54,206.62,133.87,210.33,129.91,213.82z"/>
		<path class="st8" d="M71.31,175.6c-0.07,5.94,0.43,12.71,1.86,20.3c4.7,25.01,12.35,42.26,21.9,43.75
			c9.56,1.5,11.51-7.67,4.1-25.24c-4.04-9.59-3.56-26.55-2.28-39.97C88.48,175.62,79.97,176.1,71.31,175.6z"/>
		<path class="st9" d="M78.1,145.41c0,0-6.56,10.44-6.79,30.19c8.66,0.5,17.17,0.02,25.57-1.16c1.06-11.17,2.67-19.89,2.67-19.89
			L78.1,145.41z"/>
		<path class="st8" d="M127.04,214.41c-7.41,17.58-5.46,26.74,4.1,25.24c9.56-1.5,17.2-18.74,21.9-43.75
			c3.06-16.29,1.87-28.83-0.1-37.34c-8.1,3.01-16.23,5.93-24.43,8.48C130.24,180.93,131.88,202.94,127.04,214.41z"/>
		<path class="st9" d="M126.65,154.55c0,0,0.94,5.1,1.86,12.49c8.19-2.55,16.32-5.47,24.43-8.48c-2.01-8.66-4.83-13.15-4.83-13.15
			L126.65,154.55z"/>
		<g>
			<path class="st12" d="M168.58,66.29c-8.04-11.3-21.15-18.79-33.05-23.18l-5.01,17.27l2.37-18.19
				c-8.28-2.79-15.72-4.05-20.08-4.04c0,0-49.62,0.04-62.76,34.86c-0.82,2.19-1.54,4.39-2.14,6.59l17.31,10.45l-18.06-7.44
				c-7.33,32.03,7.82,69.83,37.6,77.21c32.78,8.12,47.08,6.15,72.49-6.45C184.05,140.08,182.91,86.43,168.58,66.29z"/>
		</g>
		<g>
			<defs>
				<path id="SVGID_1_" d="M168.58,66.29c-8.04-11.3-21.15-18.79-33.05-23.18l-5.01,17.27l2.37-18.19
					c-8.28-2.79-15.72-4.05-20.08-4.04c0,0-49.62,0.04-62.76,34.86c-0.82,2.19-1.54,4.39-2.14,6.59l17.31,10.45l-18.06-7.44
					c-7.33,32.03,7.82,69.83,37.6,77.21c32.78,8.12,47.08,6.15,72.49-6.45C184.05,140.08,182.91,86.43,168.58,66.29z"/>
			</defs>
			<clipPath id="SVGID_2_">
				<use xlink:href="#SVGID_1_"  style="overflow:visible;"/>
			</clipPath>
			<g class="st13">
				<path class="st14" d="M31.2,92.75c0.94,0.5,164.09,25.32,164.09,25.32"/>
				<path class="st14" d="M64.18,38.44c0.31,1.02,98.13,133.93,98.13,133.93"/>
			</g>
			<g class="st13">
				<path class="st14" d="M125.9,23.36c-0.5,0.94-25.32,164.09-25.32,164.09"/>
				<path class="st14" d="M180.21,56.35c-1.02,0.31-133.93,98.13-133.93,98.13"/>
			</g>
			<g class="st13">
				<path class="st14" d="M30.27,102.64c1,0.38,165.94,5.53,165.94,5.53"/>
				<path class="st14" d="M56.53,44.79c0.43,0.97,113.43,121.25,113.43,121.25"/>
			</g>
			<g class="st13">
				<path class="st14" d="M116.01,22.44c-0.38,1-5.53,165.94-5.53,165.94"/>
				<path class="st14" d="M173.87,48.7C172.9,49.13,52.62,162.12,52.62,162.12"/>
			</g>
			<g class="st13">
				<path class="st14" d="M31.18,117.94c1.05,0.19,164.13-25.05,164.13-25.05"/>
				<path class="st14" d="M46.36,56.24c0.61,0.88,133.77,98.34,133.77,98.34"/>
			</g>
			<g class="st13">
				<path class="st14" d="M100.72,23.34c-0.19,1.05,25.05,164.13,25.05,164.13"/>
				<path class="st14" d="M162.41,38.52c-0.88,0.61-98.34,133.77-98.34,133.77"/>
			</g>
			<g class="st13">
				<path class="st14" d="M34.22,130.85c1.06,0.02,158.04-50.88,158.04-50.88"/>
				<path class="st14" d="M39.38,67.52c0.74,0.77,147.73,75.78,147.73,75.78"/>
			</g>
			<g class="st13">
				<path class="st14" d="M87.81,26.39c-0.02,1.07,50.88,158.04,50.88,158.04"/>
				<path class="st14" d="M151.13,31.54c-0.77,0.74-75.78,147.73-75.78,147.73"/>
			</g>
			<g class="st13">
				<path class="st14" d="M40.19,144.84c1.05-0.17,146.11-78.86,146.11-78.86"/>
				<path class="st14" d="M33.71,81.64c0.86,0.62,159.08,47.55,159.08,47.55"/>
			</g>
			<g class="st13">
				<path class="st14" d="M73.81,32.36c0.17,1.05,78.86,146.11,78.86,146.11"/>
				<path class="st14" d="M137.02,25.87c-0.62,0.86-47.55,159.08-47.55,159.08"/>
			</g>
			<g class="st13">
				<path class="st14" d="M37.25,138.83c1.06-0.09,151.99-66.83,151.99-66.83"/>
				<path class="st14" d="M35.88,75.3c0.81,0.69,154.73,60.21,154.73,60.21"/>
			</g>
			<g class="st13">
				<path class="st14" d="M79.83,29.42c0.09,1.06,66.83,151.99,66.83,151.99"/>
				<path class="st14" d="M143.35,28.04c-0.69,0.81-60.21,154.73-60.21,154.73"/>
			</g>
			<g class="st13">
				<path class="st14" d="M38.68,141.9c1.06-0.13,149.13-72.99,149.13-72.99"/>
				<path class="st14" d="M34.71,78.49c0.84,0.65,157.06,53.84,157.06,53.84"/>
			</g>
			<g class="st13">
				<path class="st14" d="M76.75,30.84c0.13,1.06,72.99,149.13,72.99,149.13"/>
				<path class="st14" d="M140.16,26.88c-0.65,0.84-53.84,157.06-53.84,157.06"/>
			</g>
		</g>
		<path class="st8" d="M149.24,108.2c-0.6-15.34-5.54-30.1-5.54-30.1s18.7-12.15,9.16-18.32c-9.54-6.17-16.64,13.65-16.64,13.65
			c-29.73-10.66-49.36,0.56-49.36,0.56S75.08,55.85,68.91,63.51c-6.17,7.67,10.66,16.64,10.66,16.64s-6.54,20.89-5.61,37.77
			c0.56,10.19,7.23,17.8,17.43,22.01C114.77,139.16,137.05,127.19,149.24,108.2z"/>
		<path class="st9" d="M91.39,139.93c10.62,4.38,25.08,5.09,40.53,1.18c14.64-3.71,17.88-18.56,17.32-32.91
			C137.05,127.19,114.77,139.16,91.39,139.93z"/>
		<path class="st10" d="M81.25,78.28c0,0-11.66-7.64-10.47-11.78c1.37-4.74,9.35,1.5,14.02,9.16L81.25,78.28z"/>
		<path class="st10" d="M141.32,76.59c0,0,11.66-7.64,10.47-11.78c-1.37-4.74-9.35,1.5-14.02,9.16L141.32,76.59z"/>
		<path d="M113.06,117.88c0,0-0.16-0.06-0.44-0.18c-1.71-0.72-7.7-3.47-4.61-5.22c3.58-2.03,8.55-0.84,10.1,0
			c1.54,0.84-2.08,4.99-5.21,5.34l0,0"/>
		<path class="st15" d="M108.64,118.57c0,0,1.3,3.86,4.1,4.07c2.8,0.21,4.17-4.07,4.17-4.07"/>
		<path class="st15" d="M93.99,114.65c0,0,5.6-5.05,18.82-5.05c13.22,0,17.71,5.05,17.71,5.05"/>
		<path d="M132.1,107.03c0,1.69-0.87,3.07-1.95,3.07c-1.07,0-1.95-1.37-1.95-3.07c0-1.69,0.87-3.07,1.95-3.07
			C131.22,103.96,132.1,105.33,132.1,107.03z"/>
		<path d="M97.95,106.98c0,1.72-0.89,3.11-1.98,3.11c-1.09,0-1.98-1.39-1.98-3.11c0-1.72,0.89-3.12,1.98-3.12
			C97.06,103.86,97.95,105.26,97.95,106.98z"/>
		<path class="st12" d="M52.26,168.04c-3.63-0.49-14.73-4.63-11.92-8.55c0.56-2.1,3.51,0,3.51,0s-7.01-8.7-4.49-10.94
			c2.52-2.24,4.63,6.87,4.63,6.87s-2.1-11.7,0.7-11.74c2.81-0.04,3.79,10.06,3.79,10.06s1.96-7.99,3.79-6.73
			c1.82,1.26,1.4,10.24,1.4,10.24s3.09-5.43,3.93-1.38C58.44,159.9,56.16,168.56,52.26,168.04z"/>
		<line class="st15" x1="112.81" y1="116.09" x2="112.81" y2="122.64"/>
	</g>
	<g>
		<g>
			<g>
				<g>
					<g>
						<path class="st16" d="M190.6,55.94c0,0,0.72-1.01,1.6-1.93c0.88-0.93,1.89-1.8,2.66-1.45c0.79,0.34,0.72,1.76,0.5,3.08
							c-0.22,1.32-0.63,2.57-0.63,2.57s-0.26-0.12-0.64-0.31c-0.38-0.2-0.89-0.47-1.4-0.74c-0.51-0.26-1.02-0.57-1.4-0.79
							C190.91,56.15,190.59,55.93,190.6,55.94z"/>
					</g>
					<g>
						<path class="st16" d="M194.73,58.21c0,0,2.27-4.39,3.88-3.76c0.83,0.29,0.87,1.69,0.73,3.03c-0.14,1.34-0.48,2.61-0.48,2.61
							s-1.04-0.45-2.08-0.9C195.76,58.7,194.73,58.21,194.73,58.21z"/>
					</g>
					<g>
						<path class="st16" d="M198.87,60.08c0,0,0.5-1.13,1.21-2.19c0.71-1.06,1.61-2.04,2.46-1.79c0.85,0.26,0.96,1.66,0.89,3
							c-0.08,1.35-0.36,2.63-0.36,2.63s-1.05-0.4-2.11-0.81C199.9,60.55,198.87,60.08,198.87,60.08z"/>
					</g>
					<g>
						<path class="st16" d="M203.07,61.73c0,0,0.44-1.15,1.1-2.24c0.66-1.08,1.52-2.12,2.38-1.91c1.7,0.43,0.78,5.6,0.78,5.6
							s-1.07-0.35-2.13-0.71c-0.53-0.18-1.07-0.36-1.46-0.49C203.33,61.83,203.07,61.73,203.07,61.73z"/>
					</g>
					<g>
						<path class="st16" d="M207.33,63.18c0,0,0.4-1.17,1.01-2.29c0.62-1.13,1.42-2.16,2.3-1.99c1.73,0.36,1,5.55,1,5.55
							c0,0-1.08-0.31-2.16-0.61c-0.54-0.15-1.08-0.3-1.48-0.45C207.59,63.27,207.33,63.18,207.33,63.18z"/>
					</g>
					<g>
						<path class="st16" d="M211.63,64.46c0,0,1.41-4.74,3.14-4.38c0.87,0.19,1.17,1.52,1.25,2.87c0.08,1.34-0.05,2.64-0.05,2.64
							s-1.09-0.26-2.18-0.52C212.71,64.76,211.63,64.46,211.63,64.46z"/>
					</g>
					<g>
						<path class="st16" d="M215.97,65.58c0,0,1.24-4.79,3-4.51c0.88,0.14,1.21,1.52,1.33,2.87c0.12,1.35,0.03,2.65,0.03,2.65
							L215.97,65.58z"/>
					</g>
					<g>
						<path class="st16" d="M220.33,66.59c0,0,1.08-4.83,2.85-4.63c1.76,0.2,1.54,5.44,1.54,5.44L220.33,66.59z"/>
					</g>
					<g>
						<path class="st16" d="M224.72,67.39c0,0,0.94-4.86,2.7-4.66c0.89,0.1,1.31,1.41,1.51,2.74c0.21,1.32,0.19,2.63,0.19,2.63
							s-1.1-0.15-2.21-0.31C225.82,67.59,224.72,67.39,224.72,67.39z"/>
					</g>
					<g>
						<path class="st16" d="M229.13,68.1c0,0,0.8-4.88,2.57-4.77c1.77,0.11,1.85,5.37,1.85,5.37L229.13,68.1z"/>
					</g>
					<g>
						<path class="st16" d="M233.55,68.69c0,0,0.16-1.23,0.55-2.44c0.39-1.22,0.99-2.38,1.89-2.38c1.78,0.03,2,5.27,2,5.27
							s-1.11-0.1-2.22-0.19c-0.56-0.05-1.11-0.09-1.52-0.16C233.83,68.73,233.55,68.69,233.55,68.69z"/>
					</g>
					<g>
						<path class="st16" d="M237.99,69.13c0,0,0.53-4.92,2.32-4.89c1.78,0.03,2.12,5.28,2.12,5.28L237.99,69.13z"/>
					</g>
					<g>
						<path class="st16" d="M242.43,69.51c0,0,0.1-1.23,0.43-2.46c0.33-1.22,0.87-2.46,1.77-2.49c1.78-0.06,2.25,5.16,2.25,5.16
							c0,0-1.11-0.04-2.22-0.09c-0.56-0.02-1.11-0.05-1.53-0.06C242.71,69.54,242.43,69.51,242.43,69.51z"/>
					</g>
					<g>
						<path class="st16" d="M246.88,69.72c0,0,0.29-4.94,2.08-5c1.78-0.06,2.37,5.17,2.37,5.17L246.88,69.72z"/>
					</g>
					<g>
						<path class="st16" d="M251.33,69.88c0,0,0.04-1.24,0.31-2.48c0.27-1.24,0.75-2.48,1.65-2.56c1.78-0.14,2.49,5.05,2.49,5.05
							s-1.11,0.01-2.22,0.02C252.44,69.94,251.33,69.88,251.33,69.88z"/>
					</g>
					<g>
						<path class="st16" d="M255.77,69.89c0,0,0.06-4.95,1.85-5.09c1.78-0.14,2.6,5.05,2.6,5.05L255.77,69.89z"/>
					</g>
					<g>
						<path class="st16" d="M260.22,69.84c0,0-0.04-4.94,1.74-5.09c1.78-0.22,2.7,4.93,2.7,4.93s-1.11,0.06-2.22,0.13
							C261.33,69.82,260.22,69.84,260.22,69.84z"/>
					</g>
					<g>
						<path class="st16" d="M264.66,69.68c0,0-0.14-4.94,1.64-5.17c1.77-0.23,2.8,4.92,2.8,4.92L264.66,69.68z"/>
					</g>
					<g>
						<path class="st16" d="M269.1,69.42c0,0-0.24-4.94,1.54-5.17c0.89-0.11,1.61,1.12,2.11,2.37c0.5,1.24,0.79,2.52,0.79,2.52
							s-0.28,0.03-0.69,0.07c-0.42,0.02-0.97,0.06-1.52,0.09C270.21,69.35,269.1,69.42,269.1,69.42z"/>
					</g>
					<g>
						<path class="st16" d="M273.53,69.13c0,0-0.34-4.94,1.43-5.25c1.77-0.31,2.98,4.79,2.98,4.79L273.53,69.13z"/>
					</g>
					<g>
						<path class="st16" d="M277.94,68.66c0,0-0.43-4.93,1.34-5.24c1.76-0.31,3.08,4.78,3.08,4.78L277.94,68.66z"/>
					</g>
					<g>
						<path class="st16" d="M282.36,68.2c0,0-0.52-4.92,1.25-5.23c1.78-0.37,3.13,4.69,3.13,4.69s-1.09,0.15-2.18,0.3
							C283.46,68.08,282.36,68.2,282.36,68.2z"/>
					</g>
					<g>
						<path class="st16" d="M286.74,67.65c0,0-0.57-4.91,1.21-5.29c1.78-0.38,3.15,4.68,3.15,4.68L286.74,67.65z"/>
					</g>
					<g>
						<path class="st16" d="M291.1,67.03c0,0-0.58-4.91,1.19-5.29c1.78-0.38,3.16,4.68,3.16,4.68L291.1,67.03z"/>
					</g>
					<g>
						<path class="st16" d="M295.45,66.42c0,0-0.6-4.91,1.18-5.29c1.78-0.38,3.18,4.68,3.18,4.68L295.45,66.42z"/>
					</g>
					<g>
						<path class="st16" d="M299.81,65.8c0,0-0.61-4.91,1.16-5.29c1.78-0.38,3.19,4.68,3.19,4.68L299.81,65.8z"/>
					</g>
					<g>
						<path class="st16" d="M304.17,65.18c0,0-0.63-4.91,1.15-5.28c1.78-0.38,3.21,4.67,3.21,4.67L304.17,65.18z"/>
					</g>
					<g>
						<path class="st16" d="M308.52,64.57c0,0-0.64-4.9,1.13-5.28c1.78-0.38,3.22,4.67,3.22,4.67L308.52,64.57z"/>
					</g>
					<g>
						<path class="st16" d="M312.88,63.95c0,0-0.66-4.9,1.12-5.28c1.78-0.38,3.24,4.67,3.24,4.67L312.88,63.95z"/>
					</g>
					<g>
						<path class="st16" d="M317.24,63.34c0,0-0.67-4.9,1.11-5.28c1.78-0.38,3.25,4.67,3.25,4.67L317.24,63.34z"/>
					</g>
					<g>
						<path class="st16" d="M321.59,62.72c0,0-0.68-4.89,1.09-5.28c1.76-0.43,3.26,4.59,3.26,4.59s-1.09,0.18-2.17,0.37
							C322.69,62.58,321.59,62.72,321.59,62.72z"/>
					</g>
					<g>
						<path class="st16" d="M325.94,62.03c0,0-0.71-4.9,1.06-5.32c1.76-0.43,3.29,4.59,3.29,4.59L325.94,62.03z"/>
					</g>
					<g>
						<path class="st16" d="M330.29,61.29c0,0-0.74-4.89,1.03-5.32c1.76-0.43,3.32,4.58,3.32,4.58L330.29,61.29z"/>
					</g>
					<g>
						<path class="st16" d="M334.63,60.54c0,0-0.76-4.89,1-5.31c1.76-0.43,3.35,4.58,3.35,4.58L334.63,60.54z"/>
					</g>
					<g>
						<path class="st16" d="M338.98,59.8c0,0-0.79-4.88,0.97-5.31c1.76-0.43,3.38,4.57,3.38,4.57L338.98,59.8z"/>
					</g>
					<g>
						<path class="st16" d="M343.32,59.06c0,0-0.82-4.88,0.94-5.3c1.76-0.43,3.41,4.57,3.41,4.57L343.32,59.06z"/>
					</g>
					<g>
						<path class="st16" d="M347.66,58.32c0,0-0.84-4.85,0.89-5.35c1.73-0.49,3.44,4.47,3.44,4.47s-1.08,0.22-2.17,0.45
							c-0.54,0.11-1.09,0.22-1.49,0.31C347.94,58.28,347.66,58.32,347.66,58.32z"/>
					</g>
					<g>
						<path class="st16" d="M352,57.43c0,0-0.91-4.86,0.82-5.35c1.73-0.49,3.51,4.45,3.51,4.45L352,57.43z"/>
					</g>
					<g>
						<path class="st16" d="M356.34,56.53c0,0-0.98-4.85,0.75-5.34c1.73-0.49,3.58,4.44,3.58,4.44L356.34,56.53z"/>
					</g>
					<g>
						<path class="st16" d="M360.67,55.62c0,0-0.26-1.21-0.31-2.48c-0.04-1.26,0.11-2.62,0.94-2.89c0.83-0.27,1.75,0.8,2.49,1.94
							c0.74,1.14,1.29,2.34,1.29,2.34s-1.1,0.28-2.21,0.56c-0.55,0.14-1.1,0.28-1.52,0.38C360.94,55.58,360.67,55.62,360.67,55.62z"
							/>
					</g>
				</g>
			</g>
		</g>
		<path class="st17" d="M347.85,75.66c0,0-3.5,31.58,7.17,34.62c10.67,3.04,14.05-2.46,14.05-2.46s0.79-1.67-1.38-1.42
			c0,0,1.33-2.33-0.75-2c0,0,0.67-2.25-0.83-1.58s-3.75,1.5-4.75-0.42c-1-1.92-2.17-19.92-1.67-24.58
			C360.18,73.16,351.6,63.58,347.85,75.66z"/>
		<path class="st17" d="M283.02,75.66c0,0-3.5,31.58,7.17,34.62c10.67,3.04,14.05-2.46,14.05-2.46s0.79-1.67-1.38-1.42
			c0,0,1.33-2.33-0.75-2c0,0,0.67-2.25-0.83-1.58s-3.75,1.5-4.75-0.42c-1-1.92-1.83-20.08-1.33-24.75
			C295.68,73,286.77,63.58,283.02,75.66z"/>
		<g>
			<path class="st18" d="M389.85,74.67c3.75-2.02,4.69-4.67,4.69-4.67s15.46,0.76,36.61-4.87c3.85-9.32,3.33-16.35,1.54-18.47
				c-1.83-2.17-4.5,2-4.5,2s-1.33-3.33-3-2.83c-1.67,0.5-2.17,3.5-2.17,3.5l-24.45-0.67c0,0,0.45-9-7.83-8.67
				c-8.28,0.33-8.46,10-8.46,10s-4.25-9.33-10.92-7.52c-6.67,1.81-5.67,9.03-5.67,9.03c-20,9.51-81.84,15.48-115.68,15.14
				c-33.83-0.33-57.03-12.57-58-12.82c-9.88-2.54-2.66,7.51,12.15,19.63c14.9,4.66,46.61,13.41,78.86,14.87
				C327.34,90.33,376.01,81.83,389.85,74.67z"/>
			<g>
				<defs>
					<path id="SVGID_3_" d="M394.53,70c0,0-0.94,2.65-4.69,4.67c-13.83,7.17-62.5,15.67-106.83,13.67
						c-32.25-1.46-63.96-10.21-78.86-14.87c1.99,1.63,4.16,3.32,6.53,5.08c20,14.88,44.18,21.16,60.04,24.54
						c29.22,6.21,87.79,0.25,115.52-8.92c27.73-9.17,40.43-18.67,44.61-28.33c0.1-0.24,0.19-0.47,0.29-0.7
						C409.99,70.76,394.53,70,394.53,70z"/>
				</defs>
				<clipPath id="SVGID_4_">
					<use xlink:href="#SVGID_3_"  style="overflow:visible;"/>
				</clipPath>
				<path class="st19" d="M298.58,105.61c29.88,0.34,67.18-4.67,87.66-11.44c27.73-9.17,40.43-18.67,44.61-28.33
					c0.1-0.24,0.19-0.47,0.29-0.7c-2.91,0.77-5.7,1.42-8.37,1.97c-29.73,21.7-67.87,31.2-105.43,36.56
					C311.09,104.92,304.84,104.99,298.58,105.61z"/>
				<path class="st20" d="M394.53,70c0,0-0.94,2.65-4.69,4.67c-13.83,7.17-62.5,15.67-106.83,13.67
					c-32.25-1.46-63.96-10.21-78.86-14.87c1.99,1.63,4.16,3.32,6.53,5.08c20,14.88,44.18,21.16,60.04,24.54
					c7.64,1.62,17.29,2.41,27.86,2.53c6.25-0.62,12.51-0.69,18.76-1.94c37.56-5.37,75.7-14.86,105.43-36.56
					C406.04,70.56,394.53,70,394.53,70z"/>
				<g class="st21">
					<path class="st22" d="M382.27,66.65c0,0-0.22,26.35,14.09,31.68"/>
					<path class="st22" d="M371.65,70.3c0,0-4.88,25.9,8.27,33.68"/>
					<path class="st22" d="M354.56,73.64c0,0-4.88,25.89,8.27,33.68"/>
					<path class="st22" d="M329.02,77.67c0,0-4.88,25.9,8.27,33.68"/>
					<path class="st22" d="M313.95,77.67c0,0-4.88,25.9,8.27,33.68"/>
					<path class="st22" d="M298.88,77.67c0,0-4.88,25.9,8.27,33.68"/>
					<path class="st22" d="M263.95,75.19c0,0-4.88,25.89,8.27,33.68"/>
					<path class="st22" d="M248.59,75.19c0,0-4.88,25.89,8.27,33.68"/>
					<path class="st22" d="M228.08,73.64c0,0-4.88,25.89,8.27,33.68"/>
				</g>
			</g>
		</g>
		<path class="st10" d="M395.68,70c0,0,0.67,5.83,2.67,5.17c2-0.67,2.34-4.95,2.34-4.95L395.68,70z"/>
		<path class="st10" d="M401.49,70c0,0,0.67,5.83,2.67,5.17c2-0.67,2.34-4.95,2.34-4.95L401.49,70z"/>
		<path class="st10" d="M406.49,69.38c0,0,0.67,5.83,2.67,5.17c2-0.67,2.34-4.95,2.34-4.95L406.49,69.38z"/>
		<path class="st10" d="M411.87,68.69c0,0,0.67,5.83,2.67,5.17c2-0.67,2.34-5.58,2.34-5.58L411.87,68.69z"/>
		<path class="st10" d="M417.37,67.9c0,0,0.67,5.83,2.67,5.17c2-0.67,2.34-5.58,2.34-5.58L417.37,67.9z"/>
		<path class="st10" d="M422.4,67.06c0,0,0.67,5.83,2.67,5.17c2-0.67,2.34-5.58,2.34-5.58L422.4,67.06z"/>
		<path class="st15" d="M430.85,65.83c0,0-29.8,5.83-36.32,4.17c-6.52-1.67-5.85-7-5.85-7"/>
		<path d="M377.01,51.17c0,1.47-0.75,2.67-1.67,2.67s-1.67-1.19-1.67-2.67c0-1.47,0.75-2.67,1.67-2.67S377.01,49.69,377.01,51.17z"
			/>
		<path d="M393.18,48.5c0,1.47-0.75,2.67-1.67,2.67s-1.67-1.19-1.67-2.67c0-1.47,0.75-2.67,1.67-2.67S393.18,47.03,393.18,48.5z"/>
		<path d="M426.64,55.75c-1.11,0.01-2.42-2.17-1.33-4.25S429.47,55.73,426.64,55.75z"/>
		<path d="M430.57,55.75c1.11,0.01,2.42-2.17,1.33-4.25C430.82,49.42,427.74,55.73,430.57,55.75z"/>
		<path class="st7" d="M380,69.03c-0.38,1.97-4.27,2.88-8.68,2.03c-4.42-0.85-7.68-3.14-7.3-5.12c0.38-1.97,4.27-2.88,8.68-2.03
			C377.12,64.77,380.39,67.06,380,69.03z"/>
		<path class="st18" d="M337.84,79.67c0,0-3.5,31.58,7.17,34.62c10.67,3.04,14.05-2.46,14.05-2.46s0.79-1.67-1.38-1.42
			c0,0,1.33-2.33-0.75-2c0,0,0.67-2.25-0.83-1.58s-3.75,1.5-4.75-0.42c-1-1.92-2.17-19.92-1.67-24.58
			C350.18,77.17,341.59,67.58,337.84,79.67z"/>
		<path class="st18" d="M273.01,79.67c0,0-3.5,31.58,7.17,34.62c10.67,3.04,14.05-2.46,14.05-2.46s0.79-1.67-1.38-1.42
			c0,0,1.33-2.33-0.75-2c0,0,0.67-2.25-0.83-1.58s-3.75,1.5-4.75-0.42c-1-1.92-1.83-20.08-1.33-24.75
			C285.68,77,276.76,67.58,273.01,79.67z"/>
		<g class="st23">
			<g>
				<path class="st24" d="M401.35,57.15c0.42-0.51,1.13-1.41,0.75-2.15c-0.37-0.74-2.06-0.94-2.56-0.95s-0.74,1.87-0.95,2.01
					c-0.21,0.14,0.06,0.85,0.49,0.97C399.08,57.04,400.93,57.66,401.35,57.15z"/>
				<path class="st24" d="M397.87,52.5c0.11,0.25,0.92,0.15,1.11,0.03c0.19-0.12,0.74-0.6,0.5-0.73c0,0-1.19-0.67-1.4-0.22
					C397.88,52.02,397.76,52.25,397.87,52.5z"/>
				<path class="st24" d="M403.8,53.53c0.14,0.18,0.69,0.19,0.79-0.06c0,0,0.54-0.74,0.08-0.91c-0.46-0.17-0.69-0.27-0.93-0.14
					C403.5,52.55,403.66,53.36,403.8,53.53z"/>
				<path class="st24" d="M400.23,52.55c0.19,0.79,1,0.66,1.41,0.66c0.41,0,1.19-0.25,0.91-0.92c0,0-0.92-1.1-1.37-1.12
					C400.74,51.16,400.05,51.76,400.23,52.55z"/>
				<path class="st24" d="M405.15,55.3c-0.08-0.81-0.91-0.79-1.32-0.84c-0.4-0.05-1.21,0.09-1.02,0.79c0,0,0.77,1.21,1.21,1.28
					C404.46,56.61,405.23,56.11,405.15,55.3z"/>
			</g>
			<g>
				<path class="st24" d="M408.61,56.32c0.42-0.51,1.13-1.41,0.75-2.15c-0.37-0.74-2.06-0.94-2.56-0.95
					c-0.5-0.01-0.74,1.87-0.95,2.01c-0.21,0.14,0.06,0.85,0.49,0.97C406.35,56.21,408.19,56.83,408.61,56.32z"/>
				<path class="st24" d="M405.83,52.15c0.11,0.25,0.92,0.15,1.11,0.03c0.19-0.12,0.74-0.6,0.5-0.73c0,0-1.19-0.67-1.4-0.22
					C405.83,51.67,405.72,51.9,405.83,52.15z"/>
				<path class="st24" d="M412.06,53.53c0.14,0.18,0.69,0.19,0.79-0.06c0,0,0.54-0.74,0.08-0.91c-0.46-0.17-0.69-0.27-0.93-0.14
					C411.76,52.55,411.93,53.36,412.06,53.53z"/>
				<path class="st24" d="M396.52,54.97c0.14,0.18,0.69,0.19,0.79-0.06c0,0,0.54-0.74,0.08-0.91c-0.46-0.17-0.69-0.27-0.93-0.14
					C396.22,53.99,396.38,54.79,396.52,54.97z"/>
				<path class="st24" d="M416.31,53.17c0.14,0.18,0.69,0.19,0.79-0.06c0,0,0.54-0.74,0.08-0.91c-0.46-0.17-0.69-0.27-0.93-0.14
					C416.01,52.19,416.17,53,416.31,53.17z"/>
				<path class="st24" d="M408.47,51.9c-0.16,0.8,0.63,1.02,1,1.19c0.37,0.17,1.19,0.27,1.22-0.45c0,0-0.38-1.38-0.78-1.59
					C409.51,50.85,408.63,51.1,408.47,51.9z"/>
				<path class="st24" d="M413.68,53.85c-0.16,0.8,0.63,1.02,1,1.19c0.37,0.17,1.19,0.27,1.22-0.45c0,0-0.38-1.38-0.78-1.59
					C414.72,52.8,413.84,53.06,413.68,53.85z"/>
				<path class="st24" d="M412.37,55.49c0.41-0.71-0.27-1.17-0.57-1.45c-0.3-0.28-1.04-0.64-1.3,0.04c0,0-0.08,1.43,0.23,1.75
					C411.05,56.15,411.96,56.19,412.37,55.49z"/>
			</g>
		</g>
		<g class="st23">
			<g>
				<path class="st24" d="M286.11,68.89c-0.69,0.83-1.84,2.29-1.23,3.5c0.6,1.21,3.36,1.53,4.17,1.55c0.81,0.02,1.2-3.04,1.55-3.28
					c0.35-0.23-0.1-1.38-0.8-1.59C289.8,69.07,286.79,68.07,286.11,68.89z"/>
				<path class="st24" d="M291.77,76.47c-0.18-0.41-1.51-0.25-1.81-0.05c-0.3,0.2-1.21,0.99-0.82,1.18c0,0,1.94,1.08,2.27,0.36
					C291.76,77.25,291.95,76.88,291.77,76.47z"/>
				<path class="st24" d="M282.12,74.79c-0.22-0.29-1.12-0.31-1.29,0.1c0,0-0.88,1.2-0.13,1.48c0.75,0.28,1.13,0.44,1.52,0.23
					C282.61,76.38,282.34,75.07,282.12,74.79z"/>
				<path class="st24" d="M287.92,76.38c-0.3-1.29-1.64-1.08-2.3-1.08c-0.67,0-1.94,0.41-1.49,1.5c0,0,1.5,1.79,2.23,1.82
					C287.09,78.65,288.23,77.67,287.92,76.38z"/>
				<path class="st24" d="M279.92,71.91c0.14,1.32,1.48,1.28,2.14,1.36c0.66,0.08,1.98-0.15,1.67-1.29c0,0-1.26-1.96-1.98-2.09
					C281.03,69.77,279.78,70.59,279.92,71.91z"/>
			</g>
			<g>
				<path class="st24" d="M274.27,70.24c-0.69,0.82-1.84,2.29-1.23,3.5c0.6,1.21,3.36,1.53,4.17,1.55c0.81,0.02,1.2-3.04,1.55-3.28
					c0.35-0.23-0.1-1.38-0.8-1.59C277.96,70.42,274.96,69.42,274.27,70.24z"/>
				<path class="st24" d="M278.81,77.04c-0.18-0.41-1.51-0.25-1.81-0.05c-0.3,0.2-1.21,0.99-0.82,1.18c0,0,1.94,1.08,2.28,0.36
					C278.8,77.81,278.99,77.44,278.81,77.04z"/>
				<path class="st24" d="M268.65,74.79c-0.22-0.29-1.12-0.31-1.29,0.1c0,0-0.88,1.2-0.13,1.48c0.75,0.28,1.13,0.44,1.52,0.23
					C269.14,76.38,268.87,75.07,268.65,74.79z"/>
				<path class="st24" d="M293.97,72.44c-0.22-0.29-1.12-0.31-1.29,0.1c0,0-0.88,1.2-0.13,1.48c0.75,0.28,1.13,0.44,1.52,0.23
					C294.46,74.04,294.19,72.73,293.97,72.44z"/>
				<path class="st24" d="M261.73,75.37c-0.22-0.29-1.12-0.31-1.29,0.1c0,0-0.88,1.2-0.13,1.48c0.75,0.28,1.13,0.44,1.52,0.23
					C262.22,76.97,261.95,75.66,261.73,75.37z"/>
				<path class="st24" d="M274.5,77.45c0.27-1.3-1.03-1.67-1.64-1.94c-0.61-0.27-1.94-0.44-1.98,0.74c0,0,0.61,2.25,1.27,2.58
					C272.8,79.16,274.24,78.75,274.5,77.45z"/>
				<path class="st24" d="M266.02,74.26c0.27-1.3-1.03-1.67-1.64-1.94c-0.61-0.27-1.94-0.44-1.98,0.74c0,0,0.61,2.25,1.26,2.58
					C264.32,75.97,265.76,75.56,266.02,74.26z"/>
				<path class="st24" d="M268.15,71.6c-0.67,1.15,0.45,1.91,0.93,2.36c0.49,0.45,1.69,1.04,2.11-0.07c0,0,0.14-2.33-0.37-2.85
					C270.31,70.52,268.81,70.45,268.15,71.6z"/>
			</g>
		</g>
	</g>
	<g>
		<g>
			<path class="st8" d="M287.76,308.91c0,0-9.16-7.07-11.16-20.95h3.69c0,0,3.14,17.74,10.56,18L287.76,308.91z"/>
			<path class="st12" d="M276.6,287.96c0,0-6.75-7.12-3.5-10.5s4.12,7,4.12,7s-1-10.38,1.5-10s0.62,9.12,0.62,9.12
				s1.62-8.88,3.62-8.25s-1.25,8-1.25,8s4.38-7.37,6.38-5.06c2,2.31-7.81,9.68-7.81,9.68S278.98,288.21,276.6,287.96z"/>
			<path class="st8" d="M324.5,394c0.16,12.34,0.73,27.66,2.38,37.32c3.78-0.36,7.57-0.58,11.36-0.57
				c0.48-4.22,0.46-9.52,0.61-15.37c0.16-6.36,0.43-15.61,0.68-23.93C334.51,392.62,329.5,393.13,324.5,394z"/>
			<path class="st9" d="M340.1,372.04l-15.58,2.2c0,0-0.17,8.68-0.03,19.76c5.01-0.87,10.01-1.38,15.02-2.55
				C339.82,381.02,340.1,372.04,340.1,372.04z"/>
			<path class="st1" d="M422.37,130.07l-0.76-13.23c0,0-6.73-5.25,0.38-8.75c7.12-3.5,6.99,6.25,4.37,8.62v14.12L422.37,130.07z"/>
			<path class="st1" d="M437.58,133.6l1.96-13.11c0,0-5.52-6.52,2.17-8.49c7.68-1.97,5.57,7.55,2.51,9.34l-2.89,13.83L437.58,133.6z
				"/>
			<path class="st25" d="M391.52,169.88c2.22,0.28,4.28,0.5,6.19,0.72c0.35-2.23,0.54-4.47,0.58-6.69
				c-6.04-0.69-12.64-0.77-18.83-1.73C380.77,165.85,384.16,168.96,391.52,169.88z"/>
			<path class="st10" d="M391.17,143.49c-6.01,3.18-11.13,6.66-11.81,9.56c-0.66,2.83-0.96,6.17,0.1,9.14
				c6.18,0.95,12.78,1.04,18.83,1.73C398.4,156.23,396.47,148.86,391.17,143.49z"/>
			<g>
				<path class="st8" d="M405.36,248.43c-0.12,0.46-0.26,0.98-0.43,1.55c0.26-0.27,0.51-0.56,0.76-0.84
					C405.55,248.92,405.44,248.69,405.36,248.43z"/>
				<path class="st9" d="M419.12,205.14c-2.18-0.38-5.31-4.08-7.49-7.02c-0.28,2.64-0.59,5.42-0.91,8.25
					c3.56,1.85,7.39,5.48,8.19,7.67c1.33,3.67-1.33,12.33-6,14.33c-1.56,0.67-3.16,0.36-4.74-0.49c-0.71,5.82-1.35,10.86-1.77,14.21
					c0.02-0.04,0.04-0.09,0.05-0.12c0,0,1.66-5.03,4.46-5.44c0.71-0.1,1.52-0.08,2.35,0.04c4.3-9.78,7.53-20.81,8.61-31.7
					C420.89,205.18,419.94,205.29,419.12,205.14z"/>
				<path class="st9" d="M419.33,181.21c-0.15-0.77-0.07-1.47,0.19-2.19c-0.49-1.47-1.04-2.91-1.67-4.31
					c-3.56-7.63-11.01-9.83-19.57-10.8c-0.03,2.22-0.23,4.46-0.58,6.69c9.54,1.09,15.06,1.97,15.48,7.94
					c0.1,1.44-0.14,5.03-0.58,9.86c1.7-0.57,3.64-0.67,5.01-0.49c1.09,0.14,2.55,0.22,4.05,0.49c-0.27-1.99-0.64-3.95-1.13-5.87
					C419.9,182.17,419.44,181.73,419.33,181.21z"/>
				<path class="st8" d="M446.02,130.54c-4.15,5.31-5,4.17-5,4.17s-11.29-5.75-20.17-4.5c0,0-4.5-17.33-10.33-15.33
					c-5.83,2,1.83,19.33,1.83,19.33s-11.7,4.26-21.19,9.28c5.3,5.37,7.23,12.75,7.11,20.42c8.56,0.97,16.01,3.17,19.57,10.8
					c0.63,1.4,1.18,2.84,1.67,4.31c0.48-1.35,1.62-2.76,3.26-4.85c2.5-3.2,7,2.91,7,2.91c1.74,1.44,0.22,5.78-1.51,6.42
					c-1.33,0.49-5.58,0.19-7.71-0.97c0.48,1.92,0.85,3.88,1.13,5.87c3.11,0.56,6.38,1.95,6.83,6.5c0.52,5.24-3.22,8.9-6.64,9.98
					c-1.08,10.89-4.31,21.92-8.61,31.7c2.44,0.35,5.14,1.52,6.75,2.68c2.17,1.56,3.54,4.61,3.54,6.85c0,2.24,0,5.5-1.38,7.94
					c-1.38,2.44-6.99,2.44-10.09,2.44c-3.1,0-4.72-5.09-6.27-7.13c-0.05-0.07-0.08-0.14-0.13-0.21c-0.25,0.28-0.5,0.56-0.76,0.84
					c-0.5,1.74-1.22,4-2.21,6.52c3.82,0.36,12.47,8.22,9.8,13.54c0,0-3.9,10.58-7.95,9.62c-2.71-0.64-7.95-4.13-11.37-6.77
					c-3.08,3.5-6.83,6.46-11.35,8.15c-2.73,1.02-6.19,1.92-10.15,2.76c1.87,5.29,2.12,12.74-2.35,14.63
					c-5.25,2.22-5.5,1.28-13.75-1.47c-4.33-1.44-5.84-5.7-6.29-9.41c-3.59,0.52-7.24,1.05-10.87,1.59c1.5,2.28,2.22,4.79,1.16,6.91
					c0,0-3.9,10.58-7.95,9.62s-13.79-8.29-14.58-9.62c-0.29-0.48,0.87-1.94,2.55-3.74c-9.35,1.86-17.23,4.1-21.59,7.07
					c-0.38,0.26-0.74,0.51-1.1,0.76c2.66,2.72,4.28,6.69,4.28,9.74c0,3.67,0,9-2.33,13c-1.77,3.04-7.67,3.77-12.71,3.94
					c0.3,2.71,0.71,5.75,1.19,9.22c0.09,0.68,0.19,1.37,0.3,2.05c1.33-1.59,2.72-2.83,3.8-3.29c3.58-1.54,12.39,0.64,14.65,5.18
					c2.26,4.55-4.12,9.91-7.89,13.96c-1.66,1.78-4.55,1.08-7.27-0.25c3.8,14.52,8.88,26.83,10.92,33.69
					c2.2,7.38,4.05,34.24,5.99,46.55c4.73-0.75,9.51-1.5,14.31-2.09c-0.28-11.64-1.97-35.12-1.97-35.12l-1.17-22.33
					c0,0,52.33-1,67.33-5.5c0,0,0.8,40.35,3.15,59.96c4.22-1.38,8.53-2.43,12.88-3.15c0.8-15.47,2.47-59.81,2.47-59.81
					s9.83-1,14-2.5v61.27c4.17,0.17,8.34,0.67,12.45,1.52c0.09-0.93,0.16-1.86,0.22-2.78c0.5-7.67,4.33-66,4.33-66l2.39-39.92
					c-0.97,3.37-3,6.76-5.7,7.92c-4.67,2-9.67-4.67-13.5-8.67c-3.83-4,5.5-13.67,5.5-13.67c2.83-3.38,12.67,4.33,14,8
					c0.03,0.08,0.04,0.17,0.07,0.25l1.14-19c-3.77,0.9-8.54,0.91-11.73,0.91c-5.25,0-7.99-8.33-10.62-11.67
					c-2.63-3.33,0.19-9.98,1.07-12.09c0,0,2.8-8.24,7.55-8.91c4.7-0.66,11.58,1.85,15.28,4.37l0.68-12.03
					c-0.29,0.12-0.58,0.23-0.85,0.32c-3.23,1.01-9.38,4.04-12.81-1.79c-3.42-5.84,0.64-12.29,4.23-13.23
					c2.21-0.58,6.83,1.63,10.06,3.43l0.87-15.35c-1.24,0.65-2.56,0.89-3.9,0.54c-5.51-1.47-5.13-2.37-9.96-9.6
					c-4.83-7.23,4.7-16.23,4.7-16.23c2.32,0.06,6.35,1.67,9.88,3.96c0.06-2.15,0.13-4.41,0.2-6.74c-4.59-2.4-10.98-7.33-11.62-8.4
					c-0.8-1.33,9.33-10,11.27-13c0.22-0.33,0.57-0.5,1.01-0.54c0.38-12.79,0.71-23.63,0.76-25.34c0.06-2,0.06-2,0.06-2
					s16.77-9.67,17.44-19.5S453.19,121.38,446.02,130.54z M387.75,283.65c2.5-3.2,7,2.91,7,2.91c1.74,1.44,0.22,5.78-1.51,6.42
					s-8.5-0.07-8.93-2.29C383.87,288.46,385.25,286.85,387.75,283.65z M368.12,307.71c1.26-3.5,12.24-8.04,12.24-8.04
					c6-0.54,6,6.29,5,9.52c-1,3.23-2,10.02-8.75,9.52S366.85,311.21,368.12,307.71z M303.22,327.04c-3.33-4.33,5-18.14,5-18.14
					c1.78-3.24,8-4.2,8.77-2.2s15.56,7.33,14.56,11.33s-5.67,17.33-12.33,19C312.56,338.71,306.56,331.38,303.22,327.04z
					 M323.23,354.91c-1.74,0.64-8.5-0.07-8.93-2.29c-0.43-2.22,0.94-3.84,3.44-7.04c2.5-3.2,7,2.91,7,2.91
					C326.48,349.93,324.97,354.27,323.23,354.91z M359.19,358.65c-2.33,4-11.84,4-17.09,4c-5.25,0-7.99-8.33-10.62-11.67
					c-2.63-3.33,0.19-9.98,1.07-12.09c0,0,2.8-8.24,7.55-8.91c4.75-0.67,11.75,1.91,15.42,4.45c3.67,2.55,6,7.54,6,11.21
					C361.52,349.32,361.52,354.65,359.19,358.65z M356.52,325.38c-4.67,2-9.67-4.67-13.5-8.67c-3.83-4,5.5-13.67,5.5-13.67
					c2.83-3.38,12.67,4.33,14,8C363.85,314.71,361.19,323.38,356.52,325.38z M368.76,322.76c1.58-1.62,4,4,4.5,5.78
					s-0.75,8.47-3,8.72s-3.75-1.25-6.74-4C360.53,330.51,368.76,322.76,368.76,322.76z M381.91,359.71
					c-4.68,2.97-12.31-8.09-12.31-8.09c-2.75-3.44,6.75-11.56,10.61-12.14c3.86-0.58,11.83,3.74,12.87,8.71
					C394.11,353.16,386.59,356.75,381.91,359.71z M400.28,340.46c-0.6-2.06-14.88-8.64-13.54-12.54c1.34-3.9,7.13-16.79,13.91-17.88
					c6.78-1.09,12.13,6.73,15.09,11.33c2.95,4.6-6.53,17.64-6.53,17.64C407.16,342.09,400.88,342.52,400.28,340.46z M432.16,336.7
					c4.18,1.37,0.69,13.37-2.22,15.97c-2.91,2.6-11.95,3.35-15.54-0.24c-3.59-3.59,0.74-10.71,3.03-15.75
					C419.72,331.63,432.16,336.7,432.16,336.7z M417.56,298.71c-1.7,3.31-13.17,6.4-13.17,6.4c-6.02-0.23-5.14-7.01-3.73-10.08
					c1.41-3.07,3.27-9.68,9.9-8.32C417.18,288.07,419.26,295.4,417.56,298.71z M429.78,227.34c1.74,1.44,0.22,5.78-1.51,6.42
					c-1.74,0.64-8.5-0.07-8.93-2.29c-0.43-2.22,0.94-3.84,3.44-7.04C425.28,221.23,429.78,227.34,429.78,227.34z"/>
				<path class="st12" d="M319.22,337.04c6.67-1.67,11.33-15,12.33-19s-13.79-9.33-14.56-11.33s-6.99-1.04-8.77,2.2
					c0,0-8.33,13.8-5,18.14C306.56,331.38,312.56,338.71,319.22,337.04z"/>
				<path class="st12" d="M415.74,321.38c-2.95-4.6-8.3-12.42-15.09-11.33c-6.79,1.09-12.57,13.98-13.91,17.88
					c-1.34,3.9,12.94,10.48,13.54,12.54c0.6,2.06,6.88,1.63,8.93-1.44C409.21,339.02,418.7,325.98,415.74,321.38z"/>
				<path class="st12" d="M317.07,296.04c0.8,1.33,10.54,8.67,14.58,9.62s7.95-9.62,7.95-9.62c1.06-2.11,0.33-4.62-1.16-6.91
					c-6.52,0.97-12.96,2-18.83,3.17C317.93,294.11,316.78,295.56,317.07,296.04z"/>
				<path class="st12" d="M444.08,176.76c-1.93,3-12.07,11.67-11.27,13c0.64,1.07,7.03,5.99,11.62,8.4
					c0.21-7.09,0.44-14.82,0.66-21.94C444.65,176.26,444.3,176.43,444.08,176.76z"/>
				<path class="st12" d="M412.52,270.04c2.67-5.33-5.98-13.18-9.8-13.54c-2,5.13-5.07,11.33-9.53,16.39
					c3.42,2.64,8.67,6.13,11.37,6.77C408.62,280.63,412.52,270.04,412.52,270.04z"/>
				<path class="st12" d="M348.52,303.04c0,0-9.33,9.67-5.5,13.67c3.83,4,8.83,10.67,13.5,8.67c4.67-2,7.33-10.67,6-14.33
					C361.19,307.38,351.35,299.67,348.52,303.04z"/>
				<path class="st12" d="M438.61,311.3l-0.37,6.16C438.91,315.14,439.08,312.85,438.61,311.3z"/>
				<path class="st12" d="M424.54,303.04c0,0-9.33,9.67-5.5,13.67c3.83,4,8.83,10.67,13.5,8.67c2.7-1.16,4.73-4.55,5.7-7.92
					l0.37-6.16c-0.02-0.08-0.04-0.17-0.07-0.25C437.21,307.38,427.37,299.67,424.54,303.04z"/>
				<path class="st12" d="M412.91,228.38c4.67-2,7.33-10.67,6-14.33c-0.8-2.19-4.63-5.82-8.19-7.67
					c-0.83,7.27-1.74,14.89-2.55,21.51C409.75,228.73,411.35,229.05,412.91,228.38z"/>
				<path class="st12" d="M417.43,336.68c-2.29,5.04-6.62,12.16-3.03,15.75c3.59,3.59,12.63,2.84,15.54,0.24
					c2.91-2.6,6.41-14.6,2.22-15.97C432.16,336.7,419.72,331.63,417.43,336.68z"/>
				<path class="st12" d="M380.21,339.48c-3.86,0.58-13.36,8.71-10.61,12.14c0,0,7.63,11.05,12.31,8.09
					c4.68-2.97,12.2-6.55,11.16-11.52C392.04,343.22,384.07,338.89,380.21,339.48z"/>
				<path class="st12" d="M298.21,353.94c3.78-4.05,10.15-9.42,7.89-13.96c-2.26-4.55-11.06-6.72-14.65-5.18
					c-1.07,0.46-2.47,1.71-3.8,3.29c0.83,5.37,1.98,10.62,3.28,15.6C293.66,355.03,296.55,355.72,298.21,353.94z"/>
				<path class="st12" d="M355.52,334.44c-3.67-2.55-10.67-5.12-15.42-4.45c-4.75,0.67-7.55,8.91-7.55,8.91
					c-0.88,2.11-3.7,8.76-1.07,12.09c2.63,3.33,5.37,11.67,10.62,11.67c5.25,0,14.75,0,17.09-4c2.33-4,2.33-9.33,2.33-13
					C361.52,341.98,359.19,336.98,355.52,334.44z"/>
				<path class="st12" d="M426.03,260.54c-4.75,0.67-7.55,8.91-7.55,8.91c-0.88,2.11-3.7,8.76-1.07,12.09
					c2.63,3.33,5.37,11.67,10.62,11.67c3.19,0,7.95-0.01,11.73-0.91l0.1-1.75l1.46-25.64C437.62,262.39,430.73,259.88,426.03,260.54
					z"/>
				<path class="st12" d="M412.09,256.48c3.1,0,8.71,0,10.09-2.44c1.38-2.44,1.38-5.7,1.38-7.94c0-2.24-1.38-5.29-3.54-6.85
					c-2.16-1.56-6.3-3.13-9.1-2.72c-2.8,0.41-4.46,5.44-4.46,5.44c-0.01,0.04-0.03,0.08-0.05,0.12c-0.34,2.69-0.55,4.29-0.55,4.29
					s-0.16,0.76-0.5,2.05c0.1,0.34,0.25,0.65,0.46,0.93C407.37,251.39,408.99,256.48,412.09,256.48z"/>
				<path class="st12" d="M298.87,322.88c2.33-4,2.33-9.33,2.33-13c0-3.05-1.62-7.03-4.28-9.74c-10.91,7.69-12.31,12.78-10.76,26.68
					C291.2,326.65,297.1,325.92,298.87,322.88z"/>
				<path class="st12" d="M370.26,337.26c2.25-0.25,3.5-6.93,3-8.72s-2.92-7.4-4.5-5.78c0,0-8.23,7.75-5.24,10.5
					C366.51,336.01,368.01,337.51,370.26,337.26z"/>
				<path class="st12" d="M317.75,345.59c-2.5,3.2-3.88,4.82-3.44,7.04c0.43,2.22,7.19,2.93,8.93,2.29s3.25-4.98,1.51-6.42
					C324.74,348.49,320.25,342.39,317.75,345.59z"/>
				<path class="st12" d="M393.23,292.98c1.74-0.64,3.25-4.98,1.51-6.42c0,0-4.5-6.11-7-2.91c-2.5,3.2-3.88,4.82-3.44,7.04
					C384.73,292.91,391.49,293.62,393.23,292.98z"/>
				<path class="st12" d="M422.78,224.43c-2.5,3.2-3.88,4.82-3.44,7.04c0.43,2.22,7.19,2.93,8.93,2.29
					c1.74-0.64,3.25-4.98,1.51-6.42C429.78,227.34,425.28,221.23,422.78,224.43z"/>
				<path class="st12" d="M422.78,174.17c-2.5,3.2-3.88,4.82-3.44,7.04c0.43,2.22,7.19,2.93,8.93,2.29
					c1.74-0.64,3.25-4.98,1.51-6.42C429.78,177.08,425.28,170.97,422.78,174.17z"/>
				<path class="st12" d="M355.6,296.96c8.25,2.75,8.5,3.7,13.75,1.47c4.47-1.89,4.22-9.34,2.35-14.63
					c-6.47,1.37-14.26,2.56-22.39,3.75C349.77,291.26,351.27,295.52,355.6,296.96z"/>
				<path class="st12" d="M429.66,217.18c4.83,7.23,4.45,8.13,9.96,9.6c1.34,0.36,2.66,0.11,3.9-0.54l0.17-3.03
					c0,0,0.23-7.81,0.55-18.31c-3.53-2.28-7.56-3.9-9.88-3.96C434.35,200.94,424.83,209.94,429.66,217.18z"/>
				<path class="st12" d="M376.6,318.71c6.75,0.5,7.75-6.29,8.75-9.52c1-3.23,1-10.06-5-9.52c0,0-10.97,4.54-12.24,8.04
					S369.85,318.21,376.6,318.71z"/>
				<path class="st12" d="M410.55,286.71c-6.63-1.36-8.5,5.24-9.9,8.32c-1.41,3.07-2.29,9.85,3.73,10.08c0,0,11.47-3.09,13.17-6.4
					C419.26,295.4,417.18,288.07,410.55,286.71z"/>
				<path class="st12" d="M419.12,205.14c3.67,0.64,10.05-3.51,9.38-10.25c-0.67-6.74-7.53-6.56-10.88-6.99
					c-1.37-0.18-3.31-0.08-5.01,0.49c-0.26,2.87-0.6,6.17-0.98,9.72C413.82,201.06,416.95,204.76,419.12,205.14z"/>
				<path class="st12" d="M432.58,238.16c-3.6,0.95-7.65,7.39-4.23,13.23c3.42,5.84,9.58,2.8,12.81,1.79
					c0.27-0.08,0.55-0.19,0.85-0.32l0.64-11.29C439.41,239.79,434.79,237.58,432.58,238.16z"/>
			</g>
			<path class="st1" d="M418.85,425.21c0,0-1.67,12.5,4.67,13.33c5.57,0.73,7.14-5.62,7.78-12.38c-4.11-0.85-8.27-1.35-12.45-1.52
				V425.21z"/>
			<path class="st1" d="M392.02,439.21c4.33,2.67,9.5,0.33,10.17-10c0.06-0.88,0.12-2.08,0.2-3.53c-4.35,0.72-8.66,1.77-12.88,3.15
				C390.2,434.62,391.03,438.6,392.02,439.21z"/>
			<path class="st1" d="M422.07,157.35c0,1.49-0.88,2.69-1.97,2.69c-1.09,0-1.97-1.2-1.97-2.69s0.88-2.69,1.97-2.69
				C421.19,154.66,422.07,155.87,422.07,157.35z"/>
			<ellipse class="st7" cx="421.92" cy="163.34" rx="4.44" ry="2.25"/>
			<path class="st1" d="M390.35,157.04c-0.76-1.01-1.38-4.46,1-4.96S391.79,158.97,390.35,157.04z"/>
			<path class="st1" d="M385.1,157.22c-1.09-0.64-2.99-3.59-0.99-4.96C386.12,150.88,387.17,158.44,385.1,157.22z"/>
			<g>
				<path class="st1" d="M388.61,163.84c-0.04,0-0.09,0-0.14-0.01c-1.45-0.16-1.86-2.52-1.92-2.99c-0.04-0.27,0.15-0.53,0.42-0.56
					c0.28-0.04,0.53,0.15,0.57,0.42c0.12,0.86,0.55,2.08,1.04,2.14c0.01,0,0.01,0,0.02,0c0.38,0,0.89-1.14,1.08-2.16
					c0.05-0.27,0.31-0.45,0.58-0.4c0.27,0.05,0.45,0.31,0.4,0.58C390.56,161.37,390.03,163.84,388.61,163.84z"/>
			</g>
			<path class="st1" d="M326.87,431.32c0.97,5.67,2.31,9.39,4.17,9.39c4.77,0.01,6.49-3.85,7.18-9.97
				C334.45,430.74,330.66,430.96,326.87,431.32z"/>
			<path class="st1" d="M309.56,440.13c2.63,1.42,12.46,4.58,12.63-4.42c0.02-1.04,0.01-2.36-0.03-3.88
				c-4.8,0.59-9.58,1.34-14.31,2.09C308.41,437.47,308.98,439.81,309.56,440.13z"/>
		</g>
		<path class="st10" d="M445.92,148.88c0,0,0.18-11.54,8.19-18.04c8.01-6.51,9.25-1.46,9.25-1.46S465.23,137.54,445.92,148.88z"/>
		<path class="st10" d="M414.85,132.59c0,0-2.82-13.04-6.29-15.33c0,0-1.84,7.08,3.79,16.96L414.85,132.59z"/>
	</g>
	<g>
		<g>
			<path class="st26" d="M161.68,388.77c0,0-17.08,40.55-11.84,44.29c5.24,3.74,13.9,9.71,19.16,1.75
				c5.27-7.96,21.32-33.97,21.32-33.97L161.68,388.77z"/>
			<path class="st10" d="M149.32,432.44c0,0,2.1-3.6,3.91-3.83c1.81-0.24,1.02,7.4,1.02,7.4s2.18-5.32,3.98-5.15
				c1.8,0.17,0.69,7.33,0.69,7.33s2.77-5.7,5.12-5.27c2.35,0.44,1.84,4.94,1.84,4.94s-3.18,2.92-9.75-0.21
				C149.56,434.5,149.32,432.44,149.32,432.44z"/>
			<path class="st26" d="M82.43,396.96c0,0,17,40.58,23.33,39.46c6.33-1.12,16.67-3.12,14.67-12.46c-2-9.33-9.33-39-9.33-39
				L82.43,396.96z"/>
			<path class="st26" d="M185.93,269.57c-7.14-7.22-24.49-15.11-43.49-1.11s-24.33,81.01,6.67,89.84
				c31,8.83,45.35-27.51,45.35-27.51S216.57,300.58,185.93,269.57z"/>
			<path class="st27" d="M67.68,293.3c0,0-19.75,13.44-18.25,40.59s3,32.41,2,45.16s-13.5,49.5-5.5,55.25s15.77,8.56,24.27-6.19
				s23.23-25.31,48.48-29.06s52.98-0.5,66.87,16.5c13.88,17,17.13,21.75,23.63,20.88s14.75-5.88,7.5-18.38s-18.25-30.33-18-46.42
				s4.23-28.05,12.98-19.05c8.75,9,16.5,24.22,32.55,37.47c6.94,4,13.97,4.75,13.97,4.75s-0.25,7.94,3.5,6.47
				c3.75-1.47-0.53-7.97,1.24-11.22c1.76-3.25,5.95-6.75,3.48-8.75c-2.47-2-6.23,1.25-6.23,1.25s-17.74-6.14-27.24-27.82
				s-6-42.93-16.25-58.93s-40.75-35.75-74.75-26.25S80.68,284.3,67.68,293.3z"/>
			<path class="st26" d="M158.94,271.14c0,0-21.51-11.18-40.51,2.82s-24.33,81.01,6.67,89.84c31,8.83,45.01-23.25,45.01-23.25
				S178.58,310.07,158.94,271.14z"/>
			<path class="st27" d="M162.94,267.14c0,0-21.51-11.18-40.51,2.82c-19,14-24.33,81.01,6.67,89.84c31,8.83,45.35-27.51,45.35-27.51
				S182.58,306.07,162.94,267.14z"/>
			<path class="st27" d="M53.17,312.05c0,0-14.69-0.38-15.07-20.09c-0.29-15.17,2.33-17.93,2.33-17.93s4.62-0.49,3.88,3.26
				s-4.63,15.25,1.18,22.38s10.34,7.12,10.34,7.12l-2.93,5.92"/>
			<path class="st27" d="M41.31,276.67c-2.57-1.6-6.12-7.5-4.12-11.38s4.12,5.69,4.12,5.69s0.88-7.83,3.75-8.07
				c2.88-0.24,0,8.51,0,8.51s4.62-7.08,6.12-4.35S48.71,281.3,41.31,276.67z"/>
			<path class="st10" d="M43.76,430.3c0,0,2.17-4.25,4.92-3.5s0.88,9.65,0.88,9.65s3.38-7.77,5.88-6.77s1.69,8.45,1.69,8.45
				s2.68-7.58,5.06-6.08s2.34,3.07,1.79,4.03c-1.39,2.45-6.82,4.09-11.71,2.14C43.51,434.71,43.76,430.3,43.76,430.3z"/>
			<path class="st10" d="M104.96,436.36c0,0-1.1-4.02,0-5.48c1.1-1.46,5.99,4.45,5.99,4.45s-2.27-5.28-0.89-6.45
				s5.72,4.64,5.72,4.64s-2.13-5.97-0.17-7.35c1.96-1.38,4.81,2.14,4.81,2.14s-0.15,4.32-6.98,6.82
				C106.6,437.63,104.96,436.36,104.96,436.36z"/>
			<path class="st10" d="M204,435.6c0,0-2.15-4.22,0.43-5.97s6.08,5.33,6.08,5.33s-2.25-6.67,0.75-8.33s5.93,6.08,5.93,6.08
				s-1.67-8.3,0-9.08c1.67-0.78,2.82,2.33,2.82,2.33s1.67,5.85-6,9.63C206.35,439.38,204,435.6,204,435.6z"/>
			<path class="st7" d="M194.88,340.56c0,2.04-3,3.69-6.69,3.69c-3.69,0-6.69-1.65-6.69-3.69c0-2.04,3-3.69,6.69-3.69
				C191.88,336.87,194.88,338.52,194.88,340.56z"/>
			<path class="st28" d="M201.18,343.67c0,0-0.43,4.85,4.28,6.11"/>
			<path d="M202.18,332.87c0,1.53-0.85,2.76-1.9,2.76c-1.05,0-1.9-1.24-1.9-2.76c0-1.52,0.85-2.76,1.9-2.76
				C201.33,330.11,202.18,331.35,202.18,332.87z"/>
			<g>
				<g>
					<path class="st29" d="M71.89,300.11c0.25,1.05,0.73,2.84,2.06,3.08c1.33,0.24,3.24-1.77,3.74-2.41
						c0.5-0.64-1.71-2.79-1.69-3.21c0.02-0.42-1.17-0.75-1.75-0.32C74.25,297.27,71.64,299.07,71.89,300.11z"/>
					<path class="st29" d="M81.35,300.13c-0.43-0.1-1.1,1.06-1.12,1.42c-0.02,0.36,0.06,1.56,0.46,1.36c0,0,2.03-0.9,1.65-1.6
						C81.97,300.61,81.79,300.23,81.35,300.13z"/>
					<path class="st29" d="M74.21,306.84c-0.36,0.01-0.93,0.71-0.7,1.09c0,0,0.44,1.42,1.11,0.99c0.67-0.43,1.03-0.64,1.1-1.08
						C75.78,307.41,74.57,306.84,74.21,306.84z"/>
					<path class="st29" d="M78.97,303.16c-1.22-0.53-1.85,0.66-2.24,1.19c-0.4,0.53-0.84,1.8,0.31,2.09c0,0,2.33-0.13,2.79-0.69
						C80.29,305.18,80.19,303.69,78.97,303.16z"/>
					<path class="st29" d="M70.59,306.87c1.14,0.69,1.92-0.42,2.38-0.9c0.46-0.48,1.07-1.68-0.04-2.11c0,0-2.33-0.17-2.86,0.33
						C69.55,304.7,69.45,306.19,70.59,306.87z"/>
				</g>
				<path class="st29" d="M65.86,310.39c0.25,1.04,0.73,2.84,2.06,3.08c1.33,0.24,3.24-1.77,3.74-2.4c0.5-0.63-1.71-2.79-1.69-3.21
					c0.02-0.42-1.17-0.75-1.75-0.32C68.23,307.55,65.62,309.35,65.86,310.39z"/>
				<path class="st29" d="M74.03,310.84c-0.43-0.1-1.1,1.06-1.12,1.42c-0.02,0.36,0.06,1.56,0.46,1.36c0,0,2.03-0.9,1.65-1.6
					C74.64,311.31,74.46,310.94,74.03,310.84z"/>
				<path class="st29" d="M66.13,317.61c-0.36,0.01-0.93,0.71-0.7,1.09c0,0,0.44,1.42,1.11,0.99c0.67-0.43,1.03-0.64,1.1-1.08
					C67.7,318.18,66.49,317.61,66.13,317.61z"/>
				<path class="st29" d="M79.45,295.95c-0.36,0-0.93,0.71-0.7,1.09c0,0,0.44,1.42,1.11,0.99c0.67-0.43,1.03-0.64,1.1-1.08
					C81.02,296.52,79.82,295.95,79.45,295.95z"/>
				<path class="st29" d="M62.44,323.5c-0.36,0.01-0.93,0.71-0.7,1.09c0,0,0.44,1.42,1.11,0.99c0.67-0.43,1.03-0.64,1.1-1.08
					C64.01,324.07,62.8,323.49,62.44,323.5z"/>
				<path class="st29" d="M69.51,299.71c-0.36,0.01-0.93,0.71-0.7,1.09c0,0,0.44,1.42,1.11,1c0.67-0.43,1.03-0.64,1.1-1.08
					C71.08,300.28,69.87,299.71,69.51,299.71z"/>
				<path class="st29" d="M71.77,314.53c-0.88-1-1.95-0.17-2.54,0.14c-0.58,0.32-1.52,1.28-0.6,2.03c0,0,2.17,0.86,2.83,0.54
					C72.12,316.91,72.65,315.52,71.77,314.53z"/>
				<path class="st29" d="M67.99,303.34c-0.88-1-1.95-0.18-2.54,0.14c-0.58,0.32-1.52,1.28-0.6,2.03c0,0,2.17,0.86,2.83,0.54
					C68.33,305.73,68.87,304.34,67.99,303.34z"/>
				<path class="st29" d="M61.37,314.77c-0.88-1-1.95-0.17-2.54,0.14c-0.58,0.32-1.52,1.28-0.6,2.03c0,0,2.17,0.86,2.83,0.54
					C61.72,317.16,62.26,315.77,61.37,314.77z"/>
				<path class="st29" d="M63.76,308.56c-0.88-1-1.95-0.17-2.54,0.14c-0.58,0.32-1.52,1.28-0.6,2.03c0,0,2.17,0.86,2.83,0.54
					C64.11,310.94,64.65,309.55,63.76,308.56z"/>
				<path class="st29" d="M64.13,319.4c-0.88-1-1.95-0.18-2.54,0.14c-0.58,0.32-1.52,1.28-0.6,2.03c0,0,2.17,0.86,2.83,0.54
					C64.48,321.79,65.01,320.39,64.13,319.4z"/>
				<path class="st29" d="M63.27,316.1c0.52,1.23,1.79,0.79,2.45,0.67c0.65-0.12,1.85-0.73,1.21-1.73c0,0-1.78-1.51-2.5-1.42
					C63.71,313.72,62.75,314.88,63.27,316.1z"/>
			</g>
			<g>
				<g>
					<path class="st29" d="M204.91,410.39c-1.05-0.2-2.89-0.5-3.66,0.61c-0.76,1.11,0.29,3.68,0.66,4.4
						c0.38,0.72,3.24-0.42,3.62-0.23c0.37,0.19,1.16-0.76,1-1.46C206.54,413.71,205.96,410.59,204.91,410.39z"/>
					<path class="st29" d="M201.01,419.02c0.27-0.35-0.51-1.44-0.84-1.61c-0.32-0.17-1.45-0.58-1.43-0.14c0,0-0.01,2.22,0.78,2.17
						C200.33,419.38,200.74,419.37,201.01,419.02z"/>
					<path class="st29" d="M197.82,409.75c0.14-0.33-0.27-1.14-0.71-1.08c0,0-1.48-0.18-1.36,0.6c0.12,0.79,0.16,1.2,0.53,1.44
						C196.66,410.95,197.67,410.09,197.82,409.75z"/>
					<path class="st29" d="M199.23,415.6c0.99-0.89,0.16-1.95-0.17-2.53c-0.33-0.58-1.3-1.5-2.03-0.58c0,0-0.84,2.18-0.51,2.83
						C196.84,415.98,198.25,416.49,199.23,415.6z"/>
					<path class="st29" d="M199.27,406.44c-1.09,0.76-0.4,1.92-0.16,2.54c0.25,0.62,1.09,1.66,1.94,0.83c0,0,1.11-2.05,0.87-2.74
						C201.68,406.38,200.36,405.68,199.27,406.44z"/>
				</g>
				<path class="st29" d="M198,400.69c-1.05-0.2-2.89-0.5-3.65,0.61c-0.76,1.11,0.29,3.68,0.66,4.4c0.37,0.72,3.24-0.42,3.62-0.23
					c0.37,0.19,1.16-0.76,1-1.46C199.63,404,199.05,400.89,198,400.69z"/>
				<path class="st29" d="M194.25,407.95c0.27-0.35-0.51-1.44-0.83-1.61c-0.32-0.17-1.45-0.58-1.43-0.14c0,0-0.01,2.22,0.79,2.17
					C193.56,408.31,193.98,408.3,194.25,407.95z"/>
				<path class="st29" d="M191.31,397.97c0.14-0.33-0.27-1.14-0.71-1.08c0,0-1.48-0.18-1.36,0.6c0.12,0.79,0.16,1.2,0.53,1.44
					C190.15,399.17,191.16,398.3,191.31,397.97z"/>
				<path class="st29" d="M205.6,418.99c0.14-0.33-0.27-1.14-0.71-1.08c0,0-1.48-0.18-1.36,0.6c0.12,0.79,0.16,1.2,0.53,1.44
					C204.44,420.2,205.46,419.33,205.6,418.99z"/>
				<path class="st29" d="M206.25,408.38c0.14-0.33-0.27-1.14-0.71-1.08c0,0-1.48-0.18-1.36,0.6c0.12,0.79,0.16,1.2,0.54,1.44
					C205.09,409.58,206.1,408.72,206.25,408.38z"/>
				<path class="st29" d="M191.81,404.38c1.27-0.4,0.96-1.71,0.91-2.37c-0.05-0.66-0.55-1.91-1.6-1.38c0,0-1.67,1.63-1.65,2.36
					C189.49,403.72,190.54,404.77,191.81,404.38z"/>
				<path class="st29" d="M203.56,405.51c1.27-0.4,0.96-1.71,0.91-2.37c-0.05-0.66-0.55-1.91-1.6-1.38c0,0-1.67,1.63-1.65,2.36
					C201.24,404.85,202.29,405.9,203.56,405.51z"/>
				<path class="st29" d="M195.84,394.79c1.27-0.4,0.96-1.71,0.91-2.37c-0.05-0.66-0.55-1.91-1.6-1.38c0,0-1.67,1.63-1.65,2.36
					C193.52,394.13,194.57,395.19,195.84,394.79z"/>
				<path class="st29" d="M200.53,399.52c1.27-0.4,0.96-1.71,0.91-2.37c-0.05-0.66-0.55-1.91-1.6-1.38c0,0-1.67,1.63-1.65,2.36
					C198.21,398.86,199.27,399.92,200.53,399.52z"/>
				<path class="st29" d="M193.85,395.98c-1.33-0.03-1.45,1.31-1.62,1.96c-0.16,0.64-0.09,1.98,1.08,1.82c0,0,2.11-1,2.32-1.71
					S195.18,396.01,193.85,395.98z"/>
			</g>
		</g>
		<g>
			<path class="st26" d="M49.13,406.99c6.23,1.13,12.21,2.99,17.95,5.65c0.23,0.11,0.43-0.22,0.2-0.34
				c-5.66-2.87-11.81-4.61-18.05-5.68C48.99,406.57,48.88,406.94,49.13,406.99L49.13,406.99z"/>
		</g>
		<g>
			<path class="st26" d="M59.63,405.5c4.85,1.73,9.43,4.01,14.17,6c0.21,0.09,0.36-0.27,0.16-0.37c-4.57-2.33-9.38-4.33-14.22-6.02
				C59.49,405.02,59.39,405.41,59.63,405.5L59.63,405.5z"/>
		</g>
		<g>
			<path class="st26" d="M56.63,399.49c4.93,1.76,9.52,4.19,14.09,6.71c0.3,0.16,0.56-0.29,0.26-0.45
				c-4.6-2.56-9.25-4.95-14.25-6.63C56.5,399.04,56.4,399.4,56.63,399.49L56.63,399.49z"/>
		</g>
		<g>
			<path class="st26" d="M66.09,399.8c3.78,1.75,7.41,3.71,10.97,5.89c0.28,0.17,0.53-0.26,0.26-0.44
				c-2.42-1.58-4.98-2.99-7.57-4.27c-0.98-0.48-2.43-1.55-3.56-1.53C66.01,399.45,65.91,399.72,66.09,399.8L66.09,399.8z"/>
		</g>
		<g>
			<path class="st26" d="M187.29,412.15c5.26-3.2,10.11-7,15.52-9.97c0.28-0.15,0.03-0.56-0.25-0.42
				c-5.48,2.81-10.31,6.72-15.48,10.03C186.85,411.93,187.06,412.29,187.29,412.15L187.29,412.15z"/>
		</g>
		<g>
			<path class="st26" d="M190.95,413.64c1.99-1.01,3.62-2.5,5.32-3.93c2.89-2.45,6-3.68,9.46-5.07c0.2-0.08,0.13-0.39-0.09-0.33
				c-2.68,0.64-5.13,1.74-7.41,3.28c-2.61,1.77-4.7,4.17-7.48,5.71C190.51,413.42,190.72,413.76,190.95,413.64L190.95,413.64z"/>
		</g>
		<g>
			<path class="st26" d="M195.9,414.81c2.69-0.95,4.6-3.72,6.88-5.35c0.19-0.13,0.03-0.42-0.18-0.31c-2.61,1.33-4.13,4.11-6.83,5.34
				C195.57,414.56,195.71,414.87,195.9,414.81L195.9,414.81z"/>
		</g>
		<g>
			<path class="st26" d="M196.97,419.85c2.39-1.56,4.62-3.45,6.53-5.55c0.19-0.21-0.1-0.5-0.31-0.31c-2.11,1.9-4.09,3.87-6.47,5.45
				C196.46,419.6,196.71,420.02,196.97,419.85L196.97,419.85z"/>
		</g>
		<g>
			<path class="st26" d="M221.07,349.67c2.89-0.83,5.77-1.56,8.78-1.79c0.32-0.02,0.32-0.52,0-0.5c-3.05,0.2-5.98,1.01-8.89,1.88
				C220.7,349.34,220.81,349.75,221.07,349.67L221.07,349.67z"/>
		</g>
		<g>
			<path class="st26" d="M225.24,355.34c1.85-0.54,3.53-1.63,5.34-2.31c0.29-0.11,0.16-0.57-0.13-0.46
				c-1.82,0.69-3.53,1.61-5.33,2.36C224.88,355.03,224.97,355.42,225.24,355.34L225.24,355.34z"/>
		</g>
		<g>
			<path class="st26" d="M225.46,363.99c1.94-1.25,4.13-1.95,6.16-3.02c0.24-0.12,0.03-0.46-0.21-0.35
				c-2.09,0.94-4.25,1.74-6.18,2.98C225,363.76,225.22,364.15,225.46,363.99L225.46,363.99z"/>
		</g>
		<g>
			<path class="st26" d="M224.77,360.78c1.85-0.94,3.83-1.76,5.51-2.99c0.19-0.14,0.02-0.45-0.19-0.32
				c-1.77,1.12-3.67,1.99-5.49,3.01C224.41,360.6,224.57,360.88,224.77,360.78L224.77,360.78z"/>
		</g>
		<g>
			<path class="st26" d="M233.06,365.81c0.75-0.31,1.39-0.81,2.03-1.3c0.81-0.62,1.6-1.11,2.52-1.54c0.21-0.1,0.05-0.39-0.15-0.35
				c-1.72,0.37-3.04,2.03-4.54,2.86C232.74,365.57,232.87,365.89,233.06,365.81L233.06,365.81z"/>
		</g>
		<g>
			<path class="st26" d="M205.97,318.59c1.08-1.19,3.5-1.42,5-1.76c3.11-0.71,6.2-0.67,9.33-0.19c0.21,0.03,0.3-0.27,0.09-0.33
				c-3.1-0.85-6.44-0.64-9.54,0.09c-1.53,0.36-4.13,0.61-5.15,1.99C205.59,318.54,205.84,318.73,205.97,318.59L205.97,318.59z"/>
		</g>
		<g>
			<path class="st26" d="M210.73,324.97c2.32-0.94,4.88-1.12,7.33-1.51c0.18-0.03,0.14-0.34-0.04-0.32c-2.48,0.3-5.11,0.5-7.42,1.51
				C210.41,324.73,210.54,325.05,210.73,324.97L210.73,324.97z"/>
		</g>
		<g>
			<path class="st26" d="M141.18,356.47c-16.86,1.12-25.21-16.43-28.32-30.09c-0.1-0.45-0.79-0.26-0.69,0.19
				c2.92,13.87,12.01,31.83,29.01,30.24C141.4,356.78,141.4,356.45,141.18,356.47L141.18,356.47z"/>
		</g>
		<g>
			<path class="st26" d="M122.01,283.63c-0.09-6.09,6.98-11.99,11.85-14.71c6.71-3.75,12.98-1.43,19.59,0.62
				c0.27,0.09,0.47-0.36,0.2-0.47c-6.9-2.97-13.08-3.99-20.13-0.74c-5.14,2.37-12.15,9.2-11.82,15.29
				C121.7,283.84,122.01,283.84,122.01,283.63L122.01,283.63z"/>
		</g>
		<g>
			<path class="st26" d="M112.39,320.91c-0.6-2.88-0.38-5.72-0.68-8.61c-0.03-0.25-0.36-0.25-0.39,0c-0.29,2.86,0.02,5.93,0.66,8.72
				C112.04,321.29,112.44,321.18,112.39,320.91L112.39,320.91z"/>
		</g>
	</g>
</g>
<g id="DESIGNED_BY_FREEPIK">
	<g>
		<g id="XMLID_319_">
			<g id="XMLID_338_">
				<path id="XMLID_346_" class="st30" d="M260.1,464.44c-0.43,0.44-0.8,0.93-1.11,1.45l-0.46-0.24c-0.07-0.3-0.35-0.5-0.66-0.47
					c-0.33,0.04-0.57,0.34-0.53,0.67c0.04,0.33,0.34,0.57,0.67,0.53c0.07-0.01,0.13-0.03,0.18-0.05l0.45,0.23
					c-0.25,0.55-0.43,1.14-0.54,1.74l0.75,0.13c0.23-1.3,0.85-2.51,1.79-3.47L260.1,464.44z"/>
				<path id="XMLID_345_" class="st30" d="M265.59,462.14c-0.17,0-0.34,0.01-0.51,0.02l-0.07-0.62c0.19-0.15,0.3-0.39,0.27-0.64
					c-0.04-0.39-0.4-0.67-0.79-0.63c-0.39,0.05-0.67,0.4-0.63,0.8c0.03,0.25,0.19,0.46,0.4,0.56l0.07,0.62
					c-0.71,0.12-1.4,0.33-2.06,0.64l0.33,0.69c0.94-0.45,1.94-0.67,3-0.67c0.5,0,0.99,0.05,1.47,0.16l0.16-0.74
					C266.69,462.2,266.14,462.14,265.59,462.14z"/>
				<path id="XMLID_344_" class="st30" d="M272.19,464.69c0.33-0.04,0.57-0.34,0.53-0.67c-0.04-0.33-0.34-0.57-0.67-0.53
					c-0.31,0.04-0.54,0.3-0.53,0.61l-0.42,0.36c-0.42-0.43-0.89-0.81-1.41-1.14l-0.4,0.64c1.13,0.71,2.02,1.73,2.56,2.93l0.69-0.31
					c-0.25-0.55-0.57-1.07-0.94-1.54l0.4-0.35C272.06,464.69,272.13,464.7,272.19,464.69z"/>
				<path id="XMLID_343_" class="st30" d="M265.04,472.35c-0.39,0.02-0.78,0.04-1.16,0.04c-0.88,0-1.73-0.06-2.48-0.18
					c-0.39-0.06-0.85-0.15-1.27-0.29c1.05,1.86,3.07,3.12,5.39,3.12c2.86,0,5.26-1.92,5.95-4.5c-0.68,0.45-1.51,0.83-2.46,1.12
					C267.84,472.03,266.46,472.27,265.04,472.35z"/>
				<path id="XMLID_339_" class="st30" d="M265.59,463.66c-3.35,0-6.08,2.67-6.08,5.94c0,0.43,0.05,0.85,0.14,1.26
					c0.67,0.48,2.71,0.89,5.35,0.73c2.88-0.17,5.3-0.96,6.67-2.16c0-0.2-0.02-0.39-0.04-0.58
					C271.24,465.89,268.65,463.66,265.59,463.66z M263.43,470.18c-1.02,0-1.85-0.83-1.85-1.85c0-1.02,0.83-1.85,1.85-1.85
					s1.85,0.83,1.85,1.85C265.28,469.35,264.45,470.18,263.43,470.18z M268.17,469.27c-0.75,0-1.36-0.61-1.36-1.36
					s0.61-1.36,1.36-1.36s1.36,0.61,1.36,1.36S268.92,469.27,268.17,469.27z"/>
			</g>
			<path id="XMLID_336_" class="st30" d="M281.6,465.53c-0.3-0.12-0.81-0.31-1.38-0.24c-0.55,0.07-0.84,0.34-0.84,1.01v0.87h2.23
				v1.72h-2.23v5.46h-1.93v-5.46h-1.34v-1.72h1.34v-0.89c0-1.68,0.89-2.78,2.57-2.78c0.64,0,1.16,0.12,1.59,0.31V465.53z"/>
			<path id="XMLID_334_" class="st30" d="M286.3,468.86c-0.18-0.03-0.36-0.05-0.53-0.05c-0.89,0-1.51,0.55-1.51,1.61v3.91h-1.93
				v-7.17h1.87v0.79c0.45-0.67,1.14-0.98,2.02-0.98c0.41,0,0.85,0.13,1.1,0.34L286.3,468.86z"/>
			<path id="XMLID_331_" class="st30" d="M293.96,470.74c0,0.22-0.02,0.49-0.04,0.65h-5.08c0.21,1.04,0.93,1.49,1.84,1.49
				c0.62,0,1.29-0.25,1.81-0.69l1.13,1.24c-0.81,0.75-1.85,1.09-3.06,1.09c-2.2,0-3.72-1.5-3.72-3.75c0-2.26,1.48-3.8,3.63-3.8
				C292.54,466.97,293.96,468.5,293.96,470.74z M288.85,470.07h3.17c-0.18-0.92-0.73-1.44-1.56-1.44
				C289.55,468.63,289.02,469.18,288.85,470.07z"/>
			<path id="XMLID_328_" class="st30" d="M301.62,470.74c0,0.22-0.02,0.49-0.04,0.65h-5.09c0.21,1.04,0.93,1.49,1.84,1.49
				c0.62,0,1.29-0.25,1.81-0.69l1.13,1.24c-0.81,0.75-1.85,1.09-3.06,1.09c-2.2,0-3.72-1.5-3.72-3.75c0-2.26,1.48-3.8,3.63-3.8
				C300.2,466.97,301.61,468.5,301.62,470.74z M296.5,470.07h3.18c-0.18-0.92-0.73-1.44-1.56-1.44
				C297.21,468.63,296.67,469.18,296.5,470.07z"/>
			<path id="XMLID_325_" class="st30" d="M309.96,470.74c0,2.15-1.5,3.78-3.47,3.78c-0.96,0-1.64-0.38-2.11-0.93v3.71h-1.92v-10.13
				h1.89v0.79c0.47-0.59,1.15-0.98,2.14-0.98C308.47,466.97,309.96,468.59,309.96,470.74z M304.29,470.74
				c0,1.13,0.75,1.98,1.84,1.98c1.14,0,1.85-0.88,1.85-1.98c0-1.09-0.71-1.97-1.85-1.97C305.03,468.77,304.29,469.61,304.29,470.74z
				"/>
			<path id="XMLID_322_" class="st30" d="M313.07,464.82c0,0.7-0.54,1.23-1.24,1.23c-0.7,0-1.23-0.53-1.23-1.23
				c0-0.7,0.53-1.24,1.23-1.24C312.53,463.57,313.07,464.12,313.07,464.82z M312.81,474.33h-1.93v-7.17h1.93V474.33z"/>
			<path id="XMLID_320_" class="st30" d="M316.03,469.72l2.7-2.55h2.37l-3.48,3.38l3.5,3.8h-2.38l-2.72-2.9v2.9h-1.93v-10.66h1.93
				V469.72z"/>
		</g>
		<g>
			<path class="st30" d="M184.41,474.27v-1.05c-0.53,0.72-1.39,1.23-2.39,1.23c-1.85,0-3.15-1.41-3.15-3.7
				c0-2.26,1.29-3.72,3.15-3.72c0.95,0,1.82,0.47,2.39,1.24v-3.76h1.1v9.77H184.41z M184.41,472.35v-3.21
				c-0.39-0.62-1.24-1.14-2.12-1.14c-1.42,0-2.27,1.17-2.27,2.74c0,1.57,0.85,2.72,2.27,2.72
				C183.17,473.46,184.02,472.97,184.41,472.35z"/>
			<path class="st30" d="M186.93,470.72c0-2.05,1.46-3.7,3.49-3.7c2.14,0,3.4,1.67,3.4,3.79v0.28h-5.73
				c0.09,1.33,1.03,2.45,2.55,2.45c0.8,0,1.62-0.32,2.18-0.89l0.53,0.72c-0.7,0.7-1.65,1.08-2.81,1.08
				C188.44,474.44,186.93,472.94,186.93,470.72z M190.4,467.93c-1.51,0-2.26,1.27-2.31,2.36h4.64
				C192.72,469.23,192.02,467.93,190.4,467.93z"/>
			<path class="st30" d="M194.61,473.33l0.57-0.79c0.47,0.54,1.36,1.01,2.33,1.01c1.08,0,1.67-0.51,1.67-1.22
				c0-1.71-4.38-0.66-4.38-3.28c0-1.1,0.95-2.04,2.64-2.04c1.2,0,2.05,0.45,2.62,1.03l-0.51,0.76c-0.42-0.51-1.2-0.89-2.11-0.89
				c-0.97,0-1.57,0.48-1.57,1.11c0,1.55,4.38,0.53,4.38,3.28c0,1.19-0.95,2.14-2.78,2.14C196.31,474.44,195.32,474.09,194.61,473.33
				z"/>
			<path class="st30" d="M201.48,465.45c0-0.41,0.34-0.75,0.73-0.75c0.41,0,0.75,0.34,0.75,0.75c0,0.41-0.34,0.73-0.75,0.73
				C201.81,466.18,201.48,465.86,201.48,465.45z M201.67,474.27v-7.07h1.1v7.07H201.67z"/>
			<path class="st30" d="M204.58,476.09l0.56-0.82c0.59,0.7,1.29,0.97,2.3,0.97c1.17,0,2.27-0.57,2.27-2.12v-1.01
				c-0.51,0.72-1.38,1.26-2.37,1.26c-1.85,0-3.15-1.38-3.15-3.66c0-2.27,1.29-3.68,3.15-3.68c0.95,0,1.8,0.47,2.37,1.24v-1.07h1.1
				v6.87c0,2.34-1.64,3.08-3.37,3.08C206.24,477.14,205.42,476.91,204.58,476.09z M209.71,472.23v-3.09
				c-0.38-0.62-1.23-1.14-2.11-1.14c-1.42,0-2.27,1.13-2.27,2.7c0,1.55,0.85,2.7,2.27,2.7
				C208.48,473.39,209.33,472.85,209.71,472.23z"/>
			<path class="st30" d="M217.41,474.27v-4.63c0-1.24-0.63-1.64-1.58-1.64c-0.87,0-1.69,0.53-2.1,1.1v5.17h-1.1v-7.07h1.1v1.03
				c0.5-0.59,1.46-1.2,2.52-1.2c1.48,0,2.26,0.75,2.26,2.29v4.96H217.41z"/>
			<path class="st30" d="M219.93,470.72c0-2.05,1.46-3.7,3.49-3.7c2.14,0,3.4,1.67,3.4,3.79v0.28h-5.73
				c0.09,1.33,1.03,2.45,2.55,2.45c0.8,0,1.62-0.32,2.18-0.89l0.53,0.72c-0.7,0.7-1.65,1.08-2.81,1.08
				C221.44,474.44,219.93,472.94,219.93,470.72z M223.4,467.93c-1.51,0-2.26,1.27-2.31,2.36h4.64
				C225.72,469.23,225.02,467.93,223.4,467.93z"/>
			<path class="st30" d="M233.35,474.27v-1.05c-0.53,0.72-1.39,1.23-2.39,1.23c-1.85,0-3.15-1.41-3.15-3.7
				c0-2.26,1.29-3.72,3.15-3.72c0.95,0,1.82,0.47,2.39,1.24v-3.76h1.1v9.77H233.35z M233.35,472.35v-3.21
				c-0.39-0.62-1.24-1.14-2.12-1.14c-1.42,0-2.27,1.17-2.27,2.74c0,1.57,0.85,2.72,2.27,2.72
				C232.1,473.46,232.95,472.97,233.35,472.35z"/>
			<path class="st30" d="M239.69,474.27v-9.77h1.1v3.76c0.57-0.78,1.42-1.24,2.39-1.24c1.85,0,3.15,1.46,3.15,3.72
				c0,2.3-1.3,3.7-3.15,3.7c-1,0-1.86-0.51-2.39-1.23v1.05H239.69z M242.9,473.46c1.44,0,2.29-1.16,2.29-2.72
				c0-1.57-0.85-2.74-2.29-2.74c-0.87,0-1.73,0.53-2.11,1.14v3.21C241.17,472.97,242.03,473.46,242.9,473.46z"/>
			<path class="st30" d="M247.53,476.04c0.16,0.07,0.42,0.12,0.6,0.12c0.48,0,0.81-0.16,1.05-0.75l0.47-1.07l-2.96-7.15h1.19
				l2.36,5.8l2.34-5.8h1.2l-3.54,8.51c-0.42,1.03-1.14,1.42-2.08,1.44c-0.23,0-0.6-0.04-0.8-0.1L247.53,476.04z"/>
		</g>
	</g>
</g>
</svg>
